<svg width="494" height="181" viewBox="0 0 494 181" fill="none" xmlns="http://www.w3.org/2000/svg">
    <path d="M131.962 110.407V142.549H2.47121L0 117.082L72.2828 0.75H105.15L69.4409 59.2253L39.7864 110.407H131.962ZM113.799 0.75V180.75H72.1592V0.75H113.799Z" fill="#444444"/>
    <circle cx="247" cy="91" r="90" fill="#EDB41F"/>
    <path fill-rule="evenodd" clip-rule="evenodd" d="M247.799 29.5869C243.367 31.1637 240.844 34.9815 240.885 40.0467C240.934 45.9398 245.356 50.4411 251.097 50.4411C254.51 50.4411 256.44 49.6594 258.764 47.3365C261.142 44.9584 261.874 43.0776 261.86 39.3734C261.833 32.0187 254.772 27.1048 247.799 29.5869ZM243.134 51.3946C241.352 52.0624 222.024 62.9904 220.765 64.042C220.274 64.4516 217.599 69.091 214.821 74.3512C210.273 82.9618 209.749 84.1739 209.566 86.5075C209.369 89.0229 209.405 89.143 210.8 90.5377C211.591 91.3282 212.737 92.1 213.347 92.253C214.951 92.6556 217.202 92.127 218.383 91.0696C218.947 90.5652 221.406 86.3167 223.847 81.6282C226.289 76.9397 228.495 72.8996 228.751 72.6501C229.007 72.4006 230.073 71.7099 231.119 71.1156L233.022 70.0353L230.651 80.9255C229.347 86.9155 227.208 98.1781 225.898 105.954C224.588 113.73 223.302 120.37 223.039 120.709C222.776 121.048 218.998 125.539 214.644 130.689C210.29 135.838 206.406 140.515 206.013 141.08C204.974 142.576 205.046 146.702 206.143 148.501C207.857 151.31 212.621 152.273 215.246 150.34C216.652 149.305 237.472 124.761 238.086 123.416C238.344 122.847 239.239 118.405 240.073 113.545C240.907 108.684 241.721 104.562 241.881 104.384C242.042 104.207 245.475 107.526 249.51 111.759L256.847 119.456L256.966 134.194C257.081 148.333 257.121 148.979 257.943 150.08C259.254 151.834 260.732 152.773 262.572 153.02C264.849 153.325 267.812 151.994 268.928 150.164C269.739 148.833 269.769 148.122 269.771 130.149C269.772 116.809 269.635 111.255 269.29 110.605C268.776 109.638 266.507 107.131 258.02 98.1557L252.715 92.5454L254.172 85.7358C254.974 81.9904 255.637 78.7386 255.647 78.5099C255.656 78.2808 256.826 80.3295 258.247 83.0628C259.728 85.9129 261.306 88.3771 261.946 88.8416C263.173 89.7306 279.701 93.2364 283.2 93.3496C285.537 93.4252 287.057 92.5067 288.198 90.331C289.404 88.0303 288.438 84.2375 286.306 82.9068C285.845 82.6187 282.17 81.7471 278.139 80.9703C274.11 80.1932 270.39 79.4584 269.873 79.337C269.126 79.1611 267.792 76.8316 263.32 67.8963C260.145 61.5516 257.084 55.9883 256.274 55.0926C253.991 52.5664 251.008 51.1642 247.546 50.9904C245.761 50.901 244.029 51.0594 243.134 51.3946Z" fill="#F68E35"/>
    <path fill-rule="evenodd" clip-rule="evenodd" d="M247.799 29.5869C243.367 31.1637 240.844 34.9815 240.885 40.0467C240.934 45.9398 245.356 50.4411 251.097 50.4411C254.51 50.4411 256.44 49.6594 258.764 47.3365C261.142 44.9584 261.874 43.0776 261.86 39.3734C261.833 32.0187 254.772 27.1048 247.799 29.5869ZM243.134 51.3946C241.352 52.0624 222.024 62.9904 220.765 64.042C220.274 64.4516 217.599 69.091 214.821 74.3512C210.273 82.9618 209.749 84.1739 209.566 86.5075C209.369 89.0229 209.405 89.143 210.8 90.5377C211.591 91.3282 212.737 92.1 213.347 92.253C214.951 92.6556 217.202 92.127 218.383 91.0696C218.947 90.5652 221.406 86.3167 223.847 81.6282C226.289 76.9397 228.495 72.8996 228.751 72.6501C229.007 72.4006 230.073 71.7099 231.119 71.1156L233.022 70.0353L230.651 80.9255C229.347 86.9155 227.208 98.1781 225.898 105.954C224.588 113.73 223.302 120.37 223.039 120.709C222.776 121.048 218.998 125.539 214.644 130.689C210.29 135.838 206.406 140.515 206.013 141.08C204.974 142.576 205.046 146.702 206.143 148.501C207.857 151.31 212.621 152.273 215.246 150.34C216.652 149.305 237.472 124.761 238.086 123.416C238.344 122.847 239.239 118.405 240.073 113.545C240.907 108.684 241.721 104.562 241.881 104.384C242.042 104.207 245.475 107.526 249.51 111.759L256.847 119.456L256.966 134.194C257.081 148.333 257.121 148.979 257.943 150.08C259.254 151.834 260.732 152.773 262.572 153.02C264.849 153.325 267.812 151.994 268.928 150.164C269.739 148.833 269.769 148.122 269.771 130.149C269.772 116.809 269.635 111.255 269.29 110.605C268.776 109.638 266.507 107.131 258.02 98.1557L252.715 92.5454L254.172 85.7358C254.974 81.9904 255.637 78.7386 255.647 78.5099C255.656 78.2808 256.826 80.3295 258.247 83.0628C259.728 85.9129 261.306 88.3771 261.946 88.8416C263.173 89.7306 279.701 93.2364 283.2 93.3496C285.537 93.4252 287.057 92.5067 288.198 90.331C289.404 88.0303 288.438 84.2375 286.306 82.9068C285.845 82.6187 282.17 81.7471 278.139 80.9703C274.11 80.1932 270.39 79.4584 269.873 79.337C269.126 79.1611 267.792 76.8316 263.32 67.8963C260.145 61.5516 257.084 55.9883 256.274 55.0926C253.991 52.5664 251.008 51.1642 247.546 50.9904C245.761 50.901 244.029 51.0594 243.134 51.3946Z" fill="white"/>
    <path d="M494 110.407V142.549H364.509L362.038 117.082L434.321 0.75H467.188L431.479 59.2253L401.825 110.407H494ZM475.837 0.75V180.75H434.197V0.75H475.837Z" fill="#444444"/>
</svg>