<?xml version="1.0" encoding="UTF-8"?>
<!-- Generated by Pixelmator Pro 3.7 -->
<svg width="1825" height="1391" viewBox="0 0 1825 1391" xmlns="http://www.w3.org/2000/svg">
    <g id="Layer-1">
        <g id="Group">
            <path id="Path" fill="#f7f6f5" stroke="none" d="M 1451.874023 1383.865723 L 1614.814209 1383.865723 L 1614.814209 1325.859497 L 1571.397827 1325.859497 L 1571.397827 1247.687256 C 1571.397827 1194.758301 1603.518311 1142.42395 1658.222534 1142.42395 C 1696.288452 1142.42395 1706.395264 1167.4021 1706.395264 1204.270752 L 1706.395264 1383.865723 L 1825.33252 1383.865723 L 1825.33252 1325.859497 L 1781.321533 1325.859497 L 1781.321533 1188.81311 C 1781.321533 1108.528076 1744.452881 1073.442871 1679.633667 1073.442871 C 1603.518311 1073.442871 1571.397827 1131.722656 1567.830688 1141.234863 L 1566.641724 1141.234863 C 1566.641724 1141.234863 1567.830688 1134.695068 1567.830688 1128.155518 L 1567.830688 1114.473267 C 1567.830688 1093.062256 1555.345581 1080.577271 1528.583984 1080.577271 L 1448.893311 1080.577271 L 1448.893311 1137.073242 L 1482.797485 1137.073242 C 1491.120728 1137.073242 1495.877075 1141.829468 1495.877075 1150.152832 L 1495.877075 1325.859497 L 1451.874023 1325.859497 L 1451.874023 1383.865723 Z M 1260.388672 1383.865723 L 1423.328735 1383.865723 L 1423.328735 1325.859497 L 1379.920288 1325.859497 L 1379.920288 1080.577271 L 1257.416016 1080.577271 L 1257.416016 1137.073242 L 1304.391602 1137.073242 L 1304.391602 1325.859497 L 1260.388672 1325.859497 L 1260.388672 1383.865723 Z M 1303.796997 1028.837524 L 1379.92041 1028.837524 L 1379.92041 961.640015 L 1303.796997 961.640015 L 1303.796997 1028.837524 Z M 1081.998291 1272.657227 C 1081.998291 1374.353271 1165.850586 1386.838379 1208.664429 1386.838379 C 1222.346558 1386.838379 1231.858887 1385.054688 1231.858887 1385.054688 L 1231.858887 1325.859497 C 1231.858887 1325.859497 1226.508179 1325.859497 1218.184937 1325.859497 C 1196.773926 1325.859497 1157.527222 1316.668213 1157.527222 1264.928345 L 1157.527222 1137.073242 L 1226.508179 1137.073242 L 1226.508179 1080.577271 L 1157.527222 1080.577271 L 1157.527222 997.914063 L 1084.376465 997.914063 L 1084.376465 1080.577271 L 1035.61731 1080.577271 L 1035.61731 1137.073242 L 1081.998291 1137.073242 L 1081.998291 1272.657227 Z M 439.725861 1275.629883 C 439.725861 1358.293091 478.378082 1391 539.035767 1391 C 612.042847 1391 643.473511 1339.023926 649.066528 1325.860229 L 650.713867 1325.859497 C 650.54071 1328.211548 650.236145 1333.135986 650.236145 1338.673706 L 650.236145 1349.969727 C 650.236145 1371.380737 662.729187 1383.865723 689.490906 1383.865723 L 764.417236 1383.865723 L 764.417236 1325.859497 L 735.277466 1325.859497 C 725.116455 1325.859497 722.197815 1323.208008 722.197815 1314.884644 L 722.197815 1080.577271 L 600.287964 1080.577271 L 600.287964 1137.073242 L 646.669006 1137.073242 L 646.669006 1215.56665 C 646.669006 1270.279175 615.151062 1323.80249 562.824768 1323.80249 C 524.759094 1323.80249 515.246704 1298.824341 515.246704 1262.550293 L 515.246704 1080.577271 L 392.742279 1080.577271 L 392.742279 1137.073242 L 439.725861 1137.073242 L 439.725861 1275.629883 Z M 151.03923 1209.71582 L 201.005905 1066.308594 C 206.951172 1045.492188 208.734756 1029.432007 208.734756 1029.432007 L 210.518311 1029.432007 C 210.518311 1029.432007 211.707367 1045.492188 218.247162 1066.308594 L 267.771179 1209.71582 L 151.03923 1209.71582 Z M 5e-06 1383.865723 L 158.18399 1383.865723 L 158.18399 1325.859497 L 116.469566 1325.859497 L 136.188889 1267.902832 L 284.295288 1267.902832 L 302.170044 1325.859497 L 260.474548 1325.859497 L 260.474548 1383.865723 L 419.253052 1383.865723 L 419.253052 1325.859497 L 380.682404 1325.859497 L 253.926743 961.640015 L 165.318298 961.640015 L 38.552917 1325.859497 L 5e-06 1325.859497 L 5e-06 1383.865723 Z"/>
            <path id="path1" fill="#f7f6f5" stroke="none" d="M 777.580933 1317.8573 C 777.580933 1367.210938 845.372864 1391 900.679871 1391 C 970.255371 1391 1028.535034 1360.076538 1028.535034 1298.824341 C 1028.535034 1239.355835 973.822571 1220.331055 927.433533 1205.459839 C 893.537476 1195.352905 863.803162 1185.237793 863.803162 1160.267822 C 863.803162 1141.234863 884.025085 1132.911621 907.814209 1132.911621 C 934.575867 1132.911621 952.411621 1142.42395 952.411621 1157.889771 L 952.411621 1175.130859 L 1017.230957 1175.130859 L 1017.230957 1136.47876 C 1017.230957 1090.684204 951.817078 1073.442871 907.814209 1073.442871 C 852.507202 1073.442871 788.282349 1096.042969 788.282349 1160.267822 C 788.282349 1217.952881 839.427673 1238.76123 884.025085 1254.227051 C 924.460876 1269.090088 953.006165 1275.629883 953.006165 1301.202637 C 953.006165 1321.424438 931.60321 1332.125977 901.274353 1332.125977 C 869.75647 1332.125977 841.805725 1321.424438 841.805725 1300.608032 L 841.805725 1282.772217 L 777.580933 1282.772217 L 777.580933 1317.8573 Z"/>
        </g>
        <g id="g1">
            <path id="path2" fill="#f7f6f5" stroke="none" d="M 1205.213257 289.713135 C 1164.248779 137.344482 1126.321777 -0.403931 1000.50354 -0.403931 C 874.685974 -0.403931 836.75824 137.344482 795.795166 289.713135 C 770.00177 385.65387 740.766602 494.420105 686.885132 574.67157 C 628.249939 662.01532 550.084595 702.789185 440.813324 702.85498 C 440.667786 702.855042 440.548279 702.971985 440.548279 703.117493 L 440.548279 788.56665 C 440.548279 788.714905 440.672485 788.836243 440.820801 788.836121 C 605.453979 788.75 703.088074 710.611084 767.421509 607.773743 C 814.957397 531.786804 846.763306 434.774963 878.839233 312.067505 C 915.556091 171.6073 944.515808 85.578613 1000.50354 85.578613 C 1056.492554 85.578613 1085.45166 171.6073 1122.168457 312.067505 C 1154.226685 434.704773 1220.873413 617.263916 1380.484253 617.469543 C 1380.633301 617.469727 1380.758301 617.347351 1380.758301 617.198303 L 1380.758301 531.7453 C 1380.758301 531.601501 1380.641602 531.487305 1380.497925 531.486877 C 1282.453125 531.234253 1230.983887 385.569092 1205.213257 289.713135 Z"/>
        </g>
        <path id="path3" fill="#f7f6f5" stroke="none" d="M 690.100342 313.142578 C 749.802063 80.102905 792.258606 25.641113 813.670898 7.036987 C 816.497742 4.580811 814.592957 -0.060913 810.855408 0.171631 C 664.263611 9.290894 642.901978 160.531738 607.197998 290.356079 C 572.807068 415.430969 543.917175 505.716858 482.51593 526.641968 C 479.093536 527.808105 463.461456 531.458862 440.817596 531.48761 C 440.672028 531.487793 440.548309 531.604736 440.548309 531.750305 L 440.548187 617.202271 C 440.548187 617.34967 440.656525 617.469666 440.803955 617.469543 C 462.411041 617.457275 501.024719 615.864624 534.329956 598.841248 C 633.030396 548.391296 669.690002 392.811401 690.100342 313.142578 Z"/>
        <path id="path4" fill="#f7f6f5" stroke="none" d="M 1124.213623 552.171326 C 1073.486694 468.356873 1031.604248 309.454956 1004.308289 217.659058 C 1003.225159 214.016724 998.117249 213.939209 996.873657 217.529907 C 982.71875 258.401367 963.946594 328.341919 958.192261 350.097412 C 957.043884 354.439331 957.101929 358.983032 958.389648 363.285645 C 974.516296 417.170532 994.249329 477.098633 1018.520203 531.482666 L 903.939453 531.482666 C 902.33783 531.482605 900.922424 532.416748 900.334839 533.906738 C 891.359985 556.665588 877.274048 588.839233 865.978699 611.872681 C 864.710632 614.458618 866.61084 617.469543 869.490906 617.469543 L 1064.967529 617.495483 C 1128.741333 715.575195 1229.404907 788.748352 1380.486328 788.836121 C 1380.634521 788.836243 1380.758301 788.714905 1380.758301 788.566528 L 1380.758301 703.116211 C 1380.758301 702.970947 1380.639038 702.85437 1380.493652 702.854248 C 1256.756836 702.766846 1175.621948 640.885925 1124.213623 552.171326 Z"/>
    </g>
</svg>
