<svg version="1.1" id="Layer_1" xmlns="http://www.w3.org/2000/svg" x="0" y="0" viewBox="0 0 324.76 65.12" xml:space="preserve"><style>.st0{fill:#4d868e}.st1{fill:#f58220}</style><path class="st0" d="M86.63 5.57h12.72v30.9H86.63zM5.1 5.57h13.75l4.56 16.39h.09l4.86-16.39h12.42l-11.82 30.9H16.92zM42.92 5.57h12.72v30.9H42.92zM59.48 23.92c4.14 2.69 8.32 3.67 10.16 3.67 1.28 0 1.58-.51 1.58-1.02 0-.6-.38-.85-.94-.98-1.49-.38-5.8-.85-8.96-3.63-1.62-1.45-2.73-3.46-2.73-6.44 0-6.19 4.78-10.41 12.59-10.41 3.76 0 8.2.98 11.01 2.43v10.12c-4.01-2.01-7.77-2.73-9.35-2.73-1.24 0-1.58.47-1.58.94 0 .64.47.89.98 1.07 1.28.38 5.55.9 8.58 3.29 2.09 1.71 3.11 3.88 3.11 6.66 0 5.93-4.78 10.07-12.89 10.07-3.88 0-8.53-.94-11.56-2.52V23.92zM139.98 5.57h11.57l9.09 13.19.08-.04V5.57h11.44v30.9H160.6l-9.1-13.19-.08.05v13.14h-11.44zM207.74 15.98l-.04-.08h-9.35V5.57h28.3l.04.09-11.14 20.91.04.08h10.33v9.82H196.9l-.04-.09zM229.21 5.57h22.24V15.9h-9.52v1.66h7.68v7.34h-7.68v1.75h10.12v9.82h-22.84zM255.21 5.57h12.68c6.36 0 15.02 1.58 15.02 9.82 0 3.33-1.58 5.72-3.88 7.34l7.04 13.74h-13.36l-4.61-10.16h-.17v10.16h-12.72V5.57zm13.65 13.66c2.01 0 2.9-1.07 2.9-2.39s-.94-2.35-2.9-2.35h-.94v4.74h.94z"/><path class="st1" d="M125.14 14.69c-.14-.46-.46-.65-.85-.77-1.02-.31-2.09-.4-3.15-.42-1.3-.03-2.61-.09-3.91.08-.65.09-1.3.17-1.94.29-.4.08-.77.27-.93.7-.47 1.21-.9 2.43-1.18 3.7 1.85.99 11.37.99 13.19-.03-.43-1.17-.86-2.35-1.23-3.55zM115.37 22.12c-.57-.28-1.15-.55-1.73-.81-.46-.2-.92-.38-1.44-.34-.33.03-.57.25-.57.58-.01.23.02.46-.01.69-.05.52.25.71.64.78.56.1 1.13.14 1.7.21 0-.01.01-.02.01-.03.39-.02.77-.04 1.16-.07.31-.02.47-.15.55-.45a.553.553 0 00-.31-.56z"/><path class="st1" d="M119.73 5.1c-9.69 0-17.24 6.96-17.24 15.92s7.55 15.92 17.24 15.92 17.24-6.96 17.24-15.92S129.41 5.1 119.73 5.1zm9.67 15.01c-.24.01-.49 0-.78 0 .39.72.25 1.47.26 2.2.01 1.68-.01 3.35.01 5.03 0 .39-.09.68-.44.88h-3.19c-.38-.2-.5-.53-.48-.93.02-.35 0-.71 0-1.06h-10.11c0 .36-.01.71 0 1.06.02.41-.1.73-.48.93H111c-.34-.2-.44-.49-.44-.88.02-2 .01-4.01 0-6.01 0-.41.06-.81.26-1.22-.25 0-.48-.01-.7 0-.38.03-.71-.26-.56-.7.09-.26.16-.53.28-.79.18-.4.52-.59.95-.61.25-.01.49 0 .74 0 .31-.88.61-1.76.94-2.63.24-.65.51-1.28.8-1.91.17-.37.54-.57.89-.74.64-.31 1.31-.53 2.01-.63.3-.04.61-.09.91-.1 1.07-.04 2.13-.1 3.2-.09.9.01 1.8.11 2.71.18.77.05 1.5.26 2.2.57.62.28 1.03.73 1.25 1.39.44 1.28.92 2.54 1.39 3.81.02.07.12.13.2.14.13.02.27.01.4.01.7-.03 1.08.26 1.29.91.06.18.1.36.15.54.12.38-.08.64-.47.65z"/><path class="st1" d="M127.67 21.17c-.25-.31-.62-.25-.92-.17-.57.16-1.13.39-1.68.62-.35.14-.7.31-1.02.52-.14.09-.25.32-.25.49-.01.21.11.43.39.45.44.04.87.08 1.39.14.5-.06 1.07-.1 1.63-.2.37-.07.68-.26.63-.76-.02-.23.01-.46-.01-.69a.74.74 0 00-.16-.4zM188.94 17.37c.03.06.05.09.06.12.37.75.74 1.5 1.12 2.24.03.06.06.11.09.16.14.25.34.43.62.53.23.09.46.13.7.18l1.86.36c.62.12 1.24.24 1.85.36.2.04.41.08.61.11.46.06.85-.1 1.16-.43.1-.11.18-.24.24-.37.1-.2.09-.42.07-.63-.03-.22-.1-.42-.2-.61-.19-.37-.51-.55-.9-.63-.95-.19-1.89-.37-2.84-.55-.34-.07-.67-.13-1.01-.19-.07-.01-.11-.05-.14-.12-.75-1.52-1.51-3.03-2.26-4.55-.13-.25-.24-.51-.38-.75-.29-.52-.66-.96-1.16-1.29-.38-.25-.78-.44-1.23-.53-.42-.08-.84-.06-1.26.05-.27.07-.52.17-.76.31-1.54.88-3.08 1.75-4.62 2.63-.15.08-.29.18-.43.27-.18.12-.33.29-.43.49-.81 1.55-1.62 3.1-2.44 4.65-.32.61-.11 1.28.27 1.63.62.57 1.62.44 2.06-.28.11-.18.2-.37.3-.56.66-1.26 1.32-2.51 1.98-3.77.04-.07.09-.13.16-.17.36-.2.71-.41 1.07-.62.03-.02.07-.04.12-.06v.07l-.57 2.6c-.19.87-.39 1.74-.58 2.61-.08.39-.14.78-.2 1.18-.11.63-.21 1.25-.32 1.88-.11.62-.21 1.24-.32 1.86-.1.62-.21 1.23-.32 1.84-.06.36-.13.71-.18 1.07-.01.06-.03.1-.07.14l-2.64 3.12c-.53.62-1.06 1.25-1.59 1.88-.31.36-.44.78-.39 1.25.07.65.51 1.18 1.13 1.36.69.2 1.27.01 1.74-.53.52-.6 1.03-1.21 1.54-1.82 1.17-1.39 2.35-2.78 3.52-4.16.15-.17.29-.35.39-.55.09-.2.14-.41.17-.62.14-.8.28-1.59.41-2.39l.36-2.07c0-.02.01-.04.02-.07.03.02.05.04.07.06 1.27 1.34 2.54 2.67 3.82 4.01.05.05.06.11.06.18v6.8c0 .28.04.54.17.78.25.49.65.79 1.19.88.86.15 1.7-.44 1.85-1.33.02-.11.02-.22.02-.33v-8.23c0-.49-.18-.9-.52-1.25-.37-.38-.72-.77-1.08-1.15-.92-.98-1.84-1.96-2.77-2.93-.06-.06-.08-.11-.06-.2.22-1.02.43-2.04.65-3.06.05-.26.11-.51.16-.77.04-.03.05-.05.06-.09M190.49 7.81a2.659 2.659 0 00-2.66-2.66 2.65 2.65 0 00-2.65 2.66c0 1.47 1.18 2.64 2.65 2.64 1.48.01 2.65-1.18 2.66-2.64M298.8 26.41c-.84.3-1.72.48-2.61.55-.33.03-.58-.18-.6-.48-.02-.32.2-.55.54-.57 1.15-.08 2.23-.39 3.27-.88.04-.01.07-.04.1-.05-.56-1.45-2.3-2.61-4.22-2.11-2 .52-3.1 2.5-2.61 4.39.52 1.98 2.47 3.13 4.42 2.61 1.95-.51 2.89-2.4 2.66-3.83-.32.12-.63.26-.95.37zM301.9 18.27c-.08 0-.17-.03-.23-.07-.6-.39-1.21-.8-1.83-1.21-.01.07-.02.12-.02.17.01.55.02 1.09.04 1.64 0 .08.04.18.1.23 1.09.89 2.18 1.78 3.28 2.67.01.01.02.01.05.02a8.262 8.262 0 001.41-3.51h-.21c-.87.02-1.73.05-2.59.06z"/><path class="st1" d="M302.41 5.1c-9.69 0-17.24 6.96-17.24 15.92s7.55 15.92 17.24 15.92c9.69 0 17.24-6.96 17.24-15.92.01-8.96-7.55-15.92-17.24-15.92zm5.44 11.87c.48-.02.96-.02 1.44-.04.51-.01 1.03-.03 1.54-.03.34 0 .57.29.52.62-.12.74-.24 1.47-.37 2.21-.05.32-.24.48-.56.49-.65.02-1.3.03-1.95.05-.31.01-.51-.14-.59-.44-.2-.7-.39-1.4-.58-2.1-.13-.47.07-.74.55-.76zm-10.63-6.67c.27-.35.64-.54 1.05-.65.17 0 .34-.01.51-.01.03.01.07.03.11.04 1.25.27 1.78 1.75.98 2.74-.6.73-1.63.84-2.36.26-.75-.61-.87-1.63-.29-2.38zm16.68 16.78c-.45 1.76-1.57 2.9-3.31 3.4-1.8.52-3.78-.16-4.91-1.64-1.51-1.98-1.26-4.67.59-6.34.05-.04.1-.09.13-.12-.36-.78-.72-1.54-1.06-2.28-.25.5-.5 1.03-.76 1.54-.11.21-.23.42-.38.6-.23.29-.34.6-.4.96-.27 1.76-.55 3.51-.83 5.26-.05.35-.28.52-.54.41-.13-.06-.21-.15-.21-.3.02-.96.03-1.92.04-2.88 0-.42-.02-.84-.03-1.26-.15.12-.32.26-.51.39-.27.2-.55.39-.83.57-.11.07-.14.15-.12.27.16 1.08-.03 2.09-.57 3.04-.63 1.08-1.54 1.79-2.74 2.14-.27.08-.55.12-.82.18-.24.01-.47.01-.71.02-.06-.01-.13-.03-.19-.03-.8-.07-1.53-.32-2.18-.78-1.62-1.16-2.31-2.76-1.97-4.72.43-2.46 2.71-4.08 5.14-3.77 1.48.19 2.62.93 3.41 2.18.1.16.19.34.3.52.6-.4 1.16-.82 1.66-1.33-.03-.03-.04-.04-.05-.04-1.35-.78-2.69-1.57-4.04-2.34-.48-.27-.75-.66-.77-1.2-.05-1.43-.08-2.85-.11-4.28-.01-.58.32-1.08.8-1.27a1.38 1.38 0 011.53.36c.78.83 1.56 1.65 2.35 2.48.06.06.14.13.22.14 1.02.17 2.04.33 3.07.49.44.07.58.22.67.67l.03.09c.3.78.59 1.57.91 2.35.17.42.39.83.58 1.23.04 0 .05 0 .07-.01.02-.01.04-.01.06-.02 1.35-.6 2.69-.6 4.01.05 1.4.69 2.24 1.83 2.54 3.36.04.2.06.41.09.62 0 .07 0 .13.01.2-.06.36-.08.73-.17 1.09z"/><path class="st1" d="M307.81 22.73c.29.46.55.93.86 1.37.37.53.77 1.04 1.16 1.54.21.28.22.59-.02.79-.24.2-.56.16-.78-.1-.68-.8-1.28-1.65-1.81-2.55-.09-.15-.17-.29-.26-.44-1.07.82-1.66 2.76-.74 4.42.95 1.72 3.15 2.34 4.91 1.39 1.75-.95 2.39-3.15 1.41-4.92-.98-1.76-3.1-2.29-4.73-1.5z"/><path class="st0" d="M18.14 51.28H12.2v5.27H9.52V43.98h2.68v4.94h5.94v-4.94h2.69v12.57h-2.69zM27.37 47.22c2.71 0 4.56 2.04 4.56 5.01v.53h-6.77c.15 1.15 1.07 2.11 2.62 2.11.85 0 1.85-.34 2.43-.9l1.05 1.55c-.91.83-2.34 1.26-3.75 1.26-2.77 0-4.86-1.86-4.86-4.79.01-2.64 1.95-4.77 4.72-4.77m-2.24 3.92h4.48c-.06-.87-.66-2.02-2.24-2.02-1.49.01-2.13 1.12-2.24 2.02M33.67 43.98h2.39v12.57h-2.39zM38.44 60.02V47.45h2.39v1.15c.7-.89 1.7-1.38 2.81-1.38 2.34 0 4.03 1.73 4.03 4.77 0 3.03-1.7 4.79-4.03 4.79-1.07 0-2.07-.45-2.81-1.39v4.64h-2.39zm4.45-10.67c-.77 0-1.66.45-2.06 1.04v3.22c.4.57 1.28 1.04 2.06 1.04 1.38 0 2.3-1.07 2.3-2.66-.01-1.56-.93-2.64-2.3-2.64M62.35 54.38h-5.61l-.79 2.17h-2.94l4.86-12.57h3.36l4.84 12.57h-2.92l-.8-2.17zm-4.89-2.31h4.16l-2.07-5.77-2.09 5.77zM73.06 55.4c-.62.7-1.72 1.38-3.2 1.38-2 0-2.94-1.09-2.94-2.87v-6.46h2.39v5.52c0 1.26.66 1.68 1.68 1.68.92 0 1.66-.51 2.07-1.04v-6.16h2.39v9.1h-2.39V55.4zM78.08 53.69c.66.62 2.02 1.24 3.15 1.24 1.04 0 1.53-.36 1.53-.92 0-.64-.79-.87-1.83-1.07-1.56-.3-3.58-.68-3.58-2.85 0-1.53 1.34-2.86 3.73-2.86 1.54 0 2.77.53 3.67 1.24l-.96 1.64c-.55-.58-1.58-1.06-2.7-1.06-.87 0-1.43.32-1.43.85 0 .56.72.77 1.73.98 1.56.3 3.66.72 3.66 2.98 0 1.66-1.41 2.92-3.94 2.92-1.58 0-3.11-.53-4.07-1.41l1.04-1.68zM87.3 54.29v-4.75h-1.51v-2.09h1.51v-2.49h2.41v2.49h1.85v2.09h-1.85v4.11c0 .57.3 1 .83 1 .36 0 .7-.13.83-.26l.51 1.81c-.36.32-1 .58-2 .58-1.68 0-2.58-.87-2.58-2.49M92.95 44.85c0-.79.66-1.43 1.43-1.43a1.43 1.43 0 110 2.86c-.77 0-1.43-.64-1.43-1.43m.25 2.6h2.39v9.1H93.2v-9.1zM104.11 51.05c0-1.26-.66-1.69-1.68-1.69-.94 0-1.68.53-2.07 1.07v6.12h-2.39v-9.1h2.39v1.19c.58-.7 1.7-1.41 3.19-1.41 2 0 2.96 1.13 2.96 2.9v6.43h-2.39v-5.51zM113.7 47.45h2.39v1.24c.64-.81 1.77-1.45 2.9-1.45v2.34c-.17-.04-.4-.08-.66-.08-.79 0-1.85.45-2.24 1.04v6.01h-2.39v-9.1zM124.62 47.22c2.71 0 4.56 2.04 4.56 5.01v.53h-6.77c.15 1.15 1.07 2.11 2.62 2.11.85 0 1.85-.34 2.43-.9l1.06 1.55c-.91.83-2.34 1.26-3.75 1.26-2.77 0-4.86-1.86-4.86-4.79-.01-2.64 1.94-4.77 4.71-4.77m-2.25 3.92h4.48c-.06-.87-.66-2.02-2.24-2.02-1.48.01-2.12 1.12-2.24 2.02M136.38 55.61c-.62.74-1.7 1.17-2.88 1.17-1.45 0-3.17-.98-3.17-3.02 0-2.13 1.72-2.9 3.17-2.9 1.21 0 2.28.38 2.88 1.11v-1.26c0-.92-.79-1.53-2-1.53-.98 0-1.88.36-2.66 1.07l-.91-1.6c1.11-.98 2.54-1.43 3.98-1.43 2.07 0 3.98.83 3.98 3.45v5.88h-2.39v-.94zm0-2.37c-.4-.53-1.15-.79-1.92-.79-.94 0-1.72.49-1.72 1.38 0 .85.77 1.34 1.72 1.34.77 0 1.53-.26 1.92-.79v-1.14zM145.39 47.22c1.86 0 3 .81 3.6 1.64l-1.56 1.47c-.43-.64-1.09-.98-1.92-.98-1.45 0-2.47 1.06-2.47 2.64s1.02 2.66 2.47 2.66c.83 0 1.49-.38 1.92-.98l1.56 1.45c-.6.85-1.73 1.66-3.6 1.66-2.81 0-4.82-1.98-4.82-4.79-.01-2.79 2.01-4.77 4.82-4.77M156.72 51.01c0-1.26-.66-1.66-1.7-1.66-.92 0-1.66.53-2.07 1.07v6.12h-2.39V43.98h2.39v4.65c.58-.7 1.71-1.41 3.21-1.41 2 0 2.96 1.09 2.96 2.86v6.46h-2.39v-5.53zM165.92 54.76l4.1-5.22h-4.1v-2.09h7.35v1.73l-4.17 5.28h4.24v2.09h-7.42zM179.47 47.22c2.71 0 4.56 2.04 4.56 5.01v.53h-6.77c.15 1.15 1.07 2.11 2.62 2.11.85 0 1.85-.34 2.43-.9l1.05 1.55c-.91.83-2.34 1.26-3.75 1.26-2.77 0-4.86-1.86-4.86-4.79.01-2.64 1.95-4.77 4.72-4.77m-2.25 3.92h4.48c-.06-.87-.66-2.02-2.24-2.02-1.48.01-2.12 1.12-2.24 2.02M185.76 47.45h2.39v1.24c.64-.81 1.77-1.45 2.9-1.45v2.34c-.17-.04-.4-.08-.66-.08-.79 0-1.85.45-2.24 1.04v6.01h-2.39v-9.1zM191.96 51.99c0-2.58 1.81-4.77 4.81-4.77 3.02 0 4.82 2.19 4.82 4.77 0 2.6-1.81 4.79-4.82 4.79-3 0-4.81-2.19-4.81-4.79m7.15 0c0-1.41-.85-2.64-2.34-2.64-1.49 0-2.32 1.22-2.32 2.64 0 1.43.83 2.66 2.32 2.66 1.49 0 2.34-1.23 2.34-2.66M208.66 54.29v-4.75h-1.51v-2.09h1.51v-2.49h2.41v2.49h1.85v2.09h-1.85v4.11c0 .57.3 1 .83 1 .36 0 .7-.13.83-.26l.51 1.81c-.36.32-1 .58-2 .58-1.67 0-2.58-.87-2.58-2.49M214.56 47.45h2.39v1.24c.64-.81 1.77-1.45 2.9-1.45v2.34c-.17-.04-.4-.08-.66-.08-.79 0-1.85.45-2.24 1.04v6.01h-2.39v-9.1zM226.82 55.61c-.62.74-1.7 1.17-2.88 1.17-1.45 0-3.16-.98-3.16-3.02 0-2.13 1.71-2.9 3.16-2.9 1.21 0 2.28.38 2.88 1.11v-1.26c0-.92-.79-1.53-2-1.53-.98 0-1.88.36-2.66 1.07l-.91-1.6c1.11-.98 2.54-1.43 3.98-1.43 2.07 0 3.98.83 3.98 3.45v5.88h-2.39v-.94zm0-2.37c-.4-.53-1.15-.79-1.92-.79-.94 0-1.71.49-1.71 1.38 0 .85.77 1.34 1.71 1.34.77 0 1.53-.26 1.92-.79v-1.14zM232.11 49.54h-1.51v-2.09h1.51v-.49c0-1.98 1.28-3.17 3.07-3.17.68 0 1.3.15 1.73.38l-.49 1.7c-.21-.13-.49-.19-.77-.19-.68 0-1.13.45-1.13 1.32v.45h1.85v2.09h-1.85v7.01h-2.41v-7.01zm6.17 0h-1.51v-2.09h1.51v-.49c0-1.98 1.28-3.17 3.07-3.17.68 0 1.3.15 1.73.38l-.49 1.73c-.19-.13-.45-.23-.77-.23-.68 0-1.13.45-1.13 1.28v.49h1.85v2.09h-1.85v7.01h-2.41v-7zm5.39-4.69c0-.79.66-1.43 1.43-1.43a1.43 1.43 0 110 2.86c-.77 0-1.43-.64-1.43-1.43m.24 2.6h2.39v9.1h-2.39v-9.1zM252.92 47.22c1.87 0 3 .81 3.6 1.64l-1.56 1.47c-.43-.64-1.09-.98-1.92-.98-1.45 0-2.47 1.06-2.47 2.64s1.02 2.66 2.47 2.66c.83 0 1.49-.38 1.92-.98l1.56 1.45c-.6.85-1.73 1.66-3.6 1.66-2.81 0-4.82-1.98-4.82-4.79 0-2.79 2.01-4.77 4.82-4.77M269.17 55.38c-.72.9-1.72 1.39-2.81 1.39-2.3 0-4.03-1.73-4.03-4.77 0-2.97 1.72-4.79 4.03-4.79 1.08 0 2.09.47 2.81 1.39v-4.64h2.41v12.57h-2.41v-1.15zm0-4.99c-.4-.6-1.26-1.04-2.07-1.04-1.36 0-2.3 1.07-2.3 2.66 0 1.57.94 2.64 2.3 2.64.81 0 1.68-.43 2.07-1.04v-3.22zM278.09 47.22c2.71 0 4.56 2.04 4.56 5.01v.53h-6.77c.15 1.15 1.07 2.11 2.62 2.11.85 0 1.85-.34 2.43-.9l1.06 1.55c-.91.83-2.34 1.26-3.75 1.26-2.77 0-4.86-1.86-4.86-4.79-.01-2.64 1.94-4.77 4.71-4.77m-2.25 3.92h4.48c-.06-.87-.66-2.02-2.24-2.02-1.48.01-2.12 1.12-2.24 2.02M289.85 55.61c-.62.74-1.7 1.17-2.88 1.17-1.45 0-3.17-.98-3.17-3.02 0-2.13 1.72-2.9 3.17-2.9 1.21 0 2.28.38 2.88 1.11v-1.26c0-.92-.79-1.53-2-1.53-.98 0-1.88.36-2.66 1.07l-.91-1.6c1.11-.98 2.54-1.43 3.98-1.43 2.07 0 3.98.83 3.98 3.45v5.88h-2.39v-.94zm0-2.37c-.4-.53-1.15-.79-1.92-.79-.94 0-1.72.49-1.72 1.38 0 .85.77 1.34 1.72 1.34.77 0 1.53-.26 1.92-.79v-1.14zM295.09 54.29v-4.75h-1.51v-2.09h1.51v-2.49h2.41v2.49h1.85v2.09h-1.85v4.11c0 .57.3 1 .83 1 .36 0 .7-.13.83-.26l.51 1.81c-.36.32-1 .58-2 .58-1.68 0-2.58-.87-2.58-2.49M307.15 51.01c0-1.26-.66-1.66-1.7-1.66-.92 0-1.66.53-2.08 1.07v6.12h-2.39V43.98h2.39v4.65c.59-.7 1.72-1.41 3.21-1.41 2 0 2.96 1.09 2.96 2.86v6.46h-2.39v-5.53zM312.17 53.69c.66.62 2.02 1.24 3.15 1.24 1.04 0 1.53-.36 1.53-.92 0-.64-.79-.87-1.83-1.07-1.56-.3-3.58-.68-3.58-2.85 0-1.53 1.34-2.86 3.73-2.86 1.54 0 2.77.53 3.67 1.24l-.96 1.64c-.55-.58-1.58-1.06-2.7-1.06-.87 0-1.43.32-1.43.85 0 .56.72.77 1.73.98 1.56.3 3.66.72 3.66 2.98 0 1.66-1.41 2.92-3.94 2.92-1.58 0-3.11-.53-4.07-1.41l1.04-1.68z"/></svg>