<svg width="343" height="36" viewBox="0 0 343 36" fill="none" xmlns="http://www.w3.org/2000/svg">
<path d="M0.77002 0.77002H15.67L20.63 18.55H20.72L26 0.77002H39.47L26.65 34.29H13.59L0.77002 0.77002Z" fill="#444444"/>
<path d="M55.59 0.77002H41.79V34.29H55.59V0.77002Z" fill="#444444"/>
<path d="M59.75 20.68C64.24 23.6 68.78 24.66 70.77 24.66C72.16 24.66 72.48 24.1 72.48 23.55C72.48 22.9 72.06 22.62 71.46 22.48C69.84 22.06 65.16 21.56 61.74 18.55C59.98 16.98 58.78 14.8 58.78 11.56C58.78 4.85 63.9699 0.26001 72.4399 0.26001C76.5099 0.26001 81.33 1.31999 84.38 2.89999V13.87C80.03 11.69 75.96 10.91 74.24 10.91C72.9 10.91 72.53 11.42 72.53 11.93C72.53 12.62 73.04 12.9 73.59 13.09C74.98 13.51 79.61 14.06 82.9 16.65C85.17 18.5 86.28 20.86 86.28 23.87C86.28 30.31 81.09 34.8 72.3 34.8C68.09 34.8 63.04 33.78 59.75 32.07V20.68Z" fill="#444444"/>
<path d="M103 0.77002H89.2V34.29H103V0.77002Z" fill="#444444"/>
<path d="M147.08 0.77002H159.62L169.48 15.08L169.57 15.03V0.77002H181.98V34.29H169.44L159.57 19.98L159.48 20.03V34.29H147.08V0.77002Z" fill="#444444"/>
<path d="M220.58 12.07L220.53 11.97H210.39V0.77002H241.08L241.13 0.860016L229.05 23.55L229.09 23.64H240.3V34.29H208.82L208.77 34.19L220.58 12.07Z" fill="#444444"/>
<path d="M243.87 0.77002H267.99V11.97H257.66V13.78H266V21.74H257.66V23.64H268.63V34.29H243.87V0.77002Z" fill="#444444"/>
<path d="M272.06 0.77002H285.81C292.71 0.77002 302.11 2.48004 302.11 11.42C302.11 15.03 300.4 17.62 297.9 19.38L305.54 34.29H291.05L286.05 23.27H285.86V34.29H272.06V0.77002ZM286.87 15.58C289.05 15.58 290.02 14.42 290.02 12.99C290.02 11.56 289 10.44 286.87 10.44H285.85V15.58H286.87Z" fill="#444444"/>
<g filter="url(#filter0_d_1_179)">
<path d="M120.45 18.7099C119.83 18.3999 119.21 18.11 118.58 17.84C118.08 17.62 117.58 17.43 117.02 17.47C116.66 17.5 116.41 17.74 116.39 18.1C116.39 18.35 116.41 18.6 116.39 18.85C116.33 19.41 116.66 19.61 117.08 19.69C117.69 19.8 118.31 19.84 118.92 19.92C118.92 19.91 118.92 19.89 118.92 19.88C119.34 19.86 119.76 19.8299 120.17 19.7999C120.51 19.7799 120.68 19.64 120.76 19.32C120.81 19.12 120.7 18.8399 120.44 18.7099H120.45Z" fill="#EDB41F"/>
<path d="M133.79 17.69C133.52 17.36 133.12 17.42 132.79 17.51C132.17 17.69 131.57 17.94 130.97 18.18C130.59 18.34 130.21 18.51 129.87 18.74C129.72 18.84 129.6 19.09 129.6 19.27C129.6 19.5 129.72 19.73 130.02 19.76C130.49 19.8 130.97 19.85 131.53 19.91C132.07 19.85 132.69 19.81 133.3 19.69C133.7 19.62 134.04 19.4 133.99 18.87C133.96 18.62 134.01 18.37 133.98 18.12C133.96 17.97 133.9 17.81 133.81 17.69H133.79Z" fill="#EDB41F"/>
<path d="M131.04 10.66C130.88 10.16 130.54 9.95994 130.11 9.82994C129 9.48994 127.84 9.39995 126.69 9.36995C125.28 9.33995 123.85 9.26995 122.44 9.45995C121.74 9.54995 121.03 9.63995 120.34 9.77995C119.9 9.86995 119.51 10.08 119.33 10.54C118.82 11.85 118.35 13.1699 118.05 14.5499C120.05 15.6199 130.38 15.6199 132.35 14.5199C131.91 13.2399 131.44 11.96 131.04 10.66Z" fill="#EDB41F"/>
<path d="M125.03 0.26001C114.52 0.26001 106.33 7.81 106.33 17.53C106.33 27.25 114.52 34.8 125.03 34.8C135.54 34.8 143.73 27.25 143.73 17.53C143.73 7.81 135.54 0.26001 125.03 0.26001ZM135.66 16.54C135.39 16.54 135.13 16.54 134.82 16.54C135.24 17.32 135.09 18.13 135.1 18.93C135.12 20.75 135.1 22.57 135.11 24.39C135.11 24.81 135.01 25.13 134.64 25.34H131.17C130.76 25.12 130.63 24.77 130.65 24.32C130.67 23.94 130.65 23.55 130.65 23.18H119.68C119.68 23.57 119.67 23.95 119.68 24.32C119.7 24.76 119.57 25.12 119.16 25.34H115.69C115.32 25.13 115.21 24.81 115.22 24.39C115.24 22.22 115.23 20.04 115.22 17.87C115.22 17.42 115.28 16.99 115.5 16.54C115.23 16.54 114.98 16.53 114.74 16.54C114.32 16.57 113.96 16.26 114.13 15.78C114.23 15.49 114.31 15.2 114.43 14.92C114.63 14.48 114.99 14.28 115.46 14.26C115.73 14.25 115.99 14.26 116.27 14.26C116.61 13.3 116.93 12.35 117.29 11.41C117.55 10.71 117.84 10.02 118.16 9.34C118.35 8.94 118.74 8.73001 119.13 8.54001C119.82 8.20001 120.55 7.96999 121.32 7.85999C121.65 7.80999 121.98 7.76 122.31 7.75C123.47 7.71 124.62 7.64 125.78 7.66C126.76 7.67 127.74 7.78001 128.71 7.85001C129.54 7.91001 130.34 8.13 131.1 8.47C131.77 8.77 132.21 9.27001 132.46 9.98001C132.94 11.36 133.45 12.74 133.96 14.11C133.99 14.18 134.09 14.25 134.17 14.26C134.31 14.28 134.46 14.27 134.61 14.26C135.37 14.22 135.79 14.54 136.01 15.25C136.07 15.44 136.12 15.64 136.17 15.83C136.28 16.24 136.06 16.52 135.64 16.54H135.66Z" fill="#EDB41F"/>
</g>
<g filter="url(#filter1_d_1_179)">
<path d="M200.18 13.57C200.21 13.63 200.23 13.67 200.25 13.71C200.65 14.52 201.06 15.33 201.46 16.14C201.49 16.2 201.52 16.26 201.56 16.32C201.71 16.59 201.93 16.78 202.23 16.9C202.48 16.99 202.73 17.05 202.99 17.1C203.66 17.23 204.33 17.36 205 17.49C205.67 17.62 206.34 17.75 207.01 17.88C207.23 17.92 207.45 17.97 207.67 18C208.17 18.07 208.59 17.9 208.93 17.54C209.04 17.42 209.12 17.28 209.19 17.13C209.3 16.91 209.29 16.68 209.27 16.44C209.24 16.2 209.16 15.99 209.05 15.78C208.84 15.38 208.5 15.18 208.07 15.1C207.04 14.9 206.01 14.7 204.99 14.5C204.62 14.43 204.26 14.36 203.9 14.29C203.82 14.28 203.78 14.23 203.75 14.17C202.94 12.53 202.12 10.88 201.3 9.23996C201.16 8.96996 201.04 8.68998 200.89 8.41998C200.58 7.85998 200.17 7.36996 199.63 7.01996C199.22 6.74996 198.79 6.53998 198.3 6.44998C197.84 6.35998 197.39 6.37997 196.94 6.49997C196.65 6.57997 196.38 6.68996 196.12 6.83996C194.45 7.78996 192.78 8.73997 191.11 9.68997C190.95 9.77997 190.8 9.87998 190.65 9.97998C190.45 10.12 190.3 10.3 190.18 10.51C189.3 12.19 188.42 13.88 187.53 15.55C187.18 16.21 187.41 16.94 187.83 17.32C188.5 17.94 189.58 17.8 190.07 17.02C190.19 16.83 190.29 16.62 190.4 16.41C191.12 15.05 191.83 13.68 192.54 12.32C192.58 12.24 192.63 12.18 192.71 12.14C193.1 11.92 193.49 11.7 193.87 11.47C193.91 11.45 193.94 11.43 194 11.4C194 11.43 194 11.46 194 11.47C193.8 12.41 193.59 13.35 193.39 14.29C193.18 15.23 192.97 16.17 192.77 17.12C192.68 17.54 192.62 17.97 192.55 18.39C192.43 19.07 192.32 19.75 192.2 20.43C192.09 21.1 191.97 21.77 191.86 22.44C191.75 23.11 191.63 23.77 191.52 24.44C191.45 24.83 191.39 25.21 191.32 25.6C191.32 25.66 191.29 25.71 191.25 25.76C190.29 26.89 189.34 28.01 188.38 29.14C187.8 29.82 187.23 30.5 186.65 31.18C186.32 31.57 186.17 32.02 186.23 32.54C186.31 33.25 186.78 33.82 187.45 34.01C188.19 34.23 188.83 34.01 189.33 33.44C189.9 32.79 190.45 32.12 191.01 31.46C192.28 29.95 193.56 28.45 194.83 26.94C194.99 26.75 195.15 26.56 195.25 26.34C195.35 26.13 195.4 25.9 195.44 25.67C195.59 24.8 195.74 23.94 195.89 23.07C196.02 22.32 196.15 21.57 196.28 20.82C196.28 20.8 196.29 20.78 196.3 20.74C196.33 20.77 196.35 20.78 196.37 20.81C197.75 22.26 199.13 23.71 200.51 25.16C200.57 25.22 200.58 25.28 200.58 25.35C200.58 27.81 200.58 30.27 200.58 32.73C200.58 33.03 200.63 33.31 200.76 33.58C201.03 34.11 201.46 34.44 202.06 34.53C203 34.69 203.91 34.05 204.06 33.09C204.08 32.97 204.09 32.85 204.09 32.73C204.09 29.75 204.09 26.78 204.09 23.81C204.09 23.28 203.9 22.83 203.53 22.45C203.13 22.04 202.75 21.62 202.36 21.2C201.36 20.14 200.36 19.08 199.36 18.02C199.3 17.95 199.27 17.9 199.29 17.8C199.53 16.7 199.76 15.59 199.99 14.48C200.05 14.2 200.11 13.92 200.17 13.64C200.17 13.62 200.18 13.6 200.2 13.55" fill="#EEB420"/>
<path d="M201.86 3.20001C201.86 1.61001 200.58 0.310004 198.97 0.320004C197.36 0.320004 196.1 1.61999 196.1 3.20999C196.1 4.79999 197.38 6.07998 198.97 6.07998C200.58 6.07998 201.85 4.78999 201.85 3.20999" fill="#EEB420"/>
</g>
<g filter="url(#filter2_d_1_179)">
<path d="M322.71 14.55C322.63 14.55 322.53 14.52 322.46 14.47C321.8 14.04 321.15 13.61 320.48 13.16C320.48 13.24 320.46 13.29 320.46 13.34C320.47 13.93 320.48 14.53 320.51 15.12C320.51 15.21 320.55 15.32 320.62 15.37C321.8 16.34 322.99 17.3 324.17 18.26C324.18 18.26 324.2 18.27 324.23 18.28C325.02 17.14 325.54 15.88 325.76 14.47C325.67 14.47 325.6 14.47 325.53 14.47C324.59 14.49 323.66 14.52 322.72 14.53L322.71 14.55Z" fill="#EDB41F"/>
<path d="M319.35 23.37C318.43 23.7 317.49 23.89 316.52 23.97C316.16 24 315.89 23.77 315.87 23.44C315.85 23.1 316.09 22.85 316.46 22.82C317.7 22.73 318.88 22.4 320.01 21.87C320.05 21.85 320.08 21.83 320.12 21.81C319.52 20.24 317.63 18.98 315.54 19.52C313.37 20.08 312.18 22.23 312.72 24.28C313.28 26.43 315.4 27.67 317.51 27.12C319.62 26.56 320.64 24.51 320.39 22.97C320.04 23.11 319.71 23.25 319.36 23.37H319.35Z" fill="#EDB41F"/>
<path d="M329.13 19.38C329.44 19.88 329.73 20.39 330.07 20.86C330.47 21.43 330.9 21.98 331.33 22.53C331.56 22.83 331.57 23.1701 331.31 23.3901C331.05 23.6101 330.71 23.57 330.46 23.28C329.72 22.42 329.08 21.48 328.49 20.51C328.4 20.35 328.3 20.19 328.21 20.03C327.05 20.92 326.41 23.02 327.41 24.83C328.44 26.69 330.83 27.37 332.73 26.34C334.63 25.31 335.32 22.92 334.26 21C333.21 19.1 330.9 18.52 329.14 19.38H329.13Z" fill="#EDB41F"/>
<path d="M323.27 0.26001C312.76 0.26001 304.57 7.81 304.57 17.53C304.57 27.25 312.76 34.8 323.27 34.8C333.78 34.8 341.97 27.25 341.97 17.53C341.97 7.81 333.78 0.26001 323.27 0.26001ZM329.17 13.14C329.69 13.12 330.21 13.11 330.73 13.1C331.29 13.1 331.84 13.07 332.4 13.07C332.77 13.07 333.02 13.38 332.96 13.74C332.83 14.54 332.7 15.34 332.56 16.14C332.5 16.49 332.3 16.66 331.95 16.67C331.24 16.69 330.54 16.71 329.83 16.72C329.5 16.72 329.27 16.57 329.18 16.24C328.97 15.48 328.76 14.72 328.55 13.96C328.41 13.45 328.64 13.15 329.16 13.14H329.17ZM317.64 5.89999C317.93 5.51999 318.33 5.32001 318.78 5.20001C318.97 5.20001 319.15 5.2 319.34 5.19C319.38 5.2 319.42 5.22001 319.46 5.23001C320.82 5.52001 321.39 7.13001 320.52 8.20001C319.87 8.99001 318.75 9.11001 317.96 8.48001C317.15 7.83001 317.02 6.72 317.65 5.91L317.64 5.89999ZM335.73 24.11C335.24 26.02 334.03 27.25 332.14 27.8C330.18 28.37 328.04 27.63 326.81 26.01C325.18 23.87 325.45 20.95 327.45 19.13C327.5 19.08 327.55 19.03 327.59 19C327.2 18.16 326.81 17.33 326.44 16.53C326.17 17.08 325.9 17.65 325.61 18.21C325.49 18.44 325.36 18.66 325.2 18.86C324.95 19.17 324.83 19.52 324.77 19.91C324.48 21.81 324.17 23.72 323.88 25.62C323.82 26 323.58 26.18 323.29 26.07C323.15 26.01 323.06 25.91 323.06 25.74C323.08 24.7 323.1 23.66 323.1 22.61C323.1 22.15 323.08 21.7 323.07 21.24C322.91 21.37 322.72 21.52 322.52 21.67C322.23 21.88 321.93 22.09 321.62 22.29C321.5 22.37 321.47 22.45 321.49 22.59C321.67 23.76 321.46 24.86 320.87 25.88C320.19 27.05 319.19 27.82 317.9 28.2C317.61 28.29 317.3 28.33 317.01 28.4C316.75 28.4 316.5 28.41 316.24 28.42C316.17 28.41 316.1 28.39 316.03 28.39C315.17 28.31 314.37 28.05 313.66 27.54C311.9 26.28 311.15 24.54 311.52 22.42C311.99 19.76 314.46 18 317.1 18.33C318.71 18.53 319.94 19.33 320.8 20.7C320.91 20.88 321.01 21.07 321.12 21.26C321.77 20.83 322.38 20.37 322.92 19.81C322.88 19.78 322.88 19.77 322.86 19.76C321.4 18.91 319.94 18.05 318.47 17.22C317.95 16.92 317.65 16.51 317.63 15.92C317.58 14.37 317.55 12.82 317.51 11.27C317.5 10.64 317.86 10.09 318.38 9.89001C318.97 9.66002 319.6 9.81 320.04 10.28C320.89 11.18 321.74 12.07 322.59 12.97C322.65 13.04 322.75 13.11 322.83 13.12C323.94 13.3 325.05 13.47 326.16 13.65C326.64 13.73 326.79 13.89 326.88 14.38C326.88 14.41 326.9 14.45 326.91 14.48C327.24 15.33 327.55 16.18 327.89 17.03C328.08 17.49 328.31 17.93 328.52 18.36C328.56 18.36 328.58 18.36 328.59 18.36C328.61 18.36 328.63 18.35 328.65 18.34C330.11 17.69 331.57 17.69 333 18.4C334.52 19.15 335.43 20.38 335.75 22.05C335.79 22.27 335.82 22.5 335.85 22.72C335.85 22.79 335.85 22.86 335.85 22.93C335.79 23.33 335.77 23.74 335.67 24.13L335.73 24.11Z" fill="#EDB41F"/>
</g>
<defs>
<filter id="filter0_d_1_179" x="106.33" y="0.26001" width="38.23" height="35.37" filterUnits="userSpaceOnUse" color-interpolation-filters="sRGB">
<feFlood flood-opacity="0" result="BackgroundImageFix"/>
<feColorMatrix in="SourceAlpha" type="matrix" values="0 0 0 0 0 0 0 0 0 0 0 0 0 0 0 0 0 0 127 0" result="hardAlpha"/>
<feOffset dx="0.83" dy="0.83"/>
<feColorMatrix type="matrix" values="0 0 0 0 0.266667 0 0 0 0 0.266667 0 0 0 0 0.266667 0 0 0 1 0"/>
<feBlend mode="normal" in2="BackgroundImageFix" result="effect1_dropShadow_1_179"/>
<feBlend mode="normal" in="SourceGraphic" in2="effect1_dropShadow_1_179" result="shape"/>
</filter>
<filter id="filter1_d_1_179" x="186.217" y="0.319946" width="23.8956" height="35.0645" filterUnits="userSpaceOnUse" color-interpolation-filters="sRGB">
<feFlood flood-opacity="0" result="BackgroundImageFix"/>
<feColorMatrix in="SourceAlpha" type="matrix" values="0 0 0 0 0 0 0 0 0 0 0 0 0 0 0 0 0 0 127 0" result="hardAlpha"/>
<feOffset dx="0.83" dy="0.83"/>
<feColorMatrix type="matrix" values="0 0 0 0 0.266667 0 0 0 0 0.270588 0 0 0 0 0.270588 0 0 0 1 0"/>
<feBlend mode="normal" in2="BackgroundImageFix" result="effect1_dropShadow_1_179"/>
<feBlend mode="normal" in="SourceGraphic" in2="effect1_dropShadow_1_179" result="shape"/>
</filter>
<filter id="filter2_d_1_179" x="304.57" y="0.26001" width="38.23" height="35.37" filterUnits="userSpaceOnUse" color-interpolation-filters="sRGB">
<feFlood flood-opacity="0" result="BackgroundImageFix"/>
<feColorMatrix in="SourceAlpha" type="matrix" values="0 0 0 0 0 0 0 0 0 0 0 0 0 0 0 0 0 0 127 0" result="hardAlpha"/>
<feOffset dx="0.83" dy="0.83"/>
<feColorMatrix type="matrix" values="0 0 0 0 0.266667 0 0 0 0 0.266667 0 0 0 0 0.266667 0 0 0 1 0"/>
<feBlend mode="normal" in2="BackgroundImageFix" result="effect1_dropShadow_1_179"/>
<feBlend mode="normal" in="SourceGraphic" in2="effect1_dropShadow_1_179" result="shape"/>
</filter>
</defs>
</svg>
