<svg width="270" height="80" id="Layer_1" data-name="Layer 1" xmlns="http://www.w3.org/2000/svg" viewBox="0 0 709 122"><defs><style>.cls-1{fill:#fff;}.cls-2{fill:#4d868e;}.cls-3{fill:#f58220;}</style></defs><path class="cls-1" d="M199,11.64a4.38,4.38,0,0,0-2.37,1.46,3.82,3.82,0,0,0,6,4.77,3.83,3.83,0,0,0-2.2-6.17,2.34,2.34,0,0,1-.24-.09c-.39,0-.77,0-1.16,0"/><polygon class="cls-2" points="-0.24 5.11 30.74 5.11 41.03 42.05 41.22 42.05 52.19 5.11 80.18 5.11 53.53 74.75 26.41 74.75 -0.24 5.11"/><rect class="cls-2" x="85" y="5.11" width="28.67" height="69.64"/><path class="cls-2" d="M122.33,46.47c9.33,6.06,18.76,8.28,22.89,8.28,2.89,0,3.56-1.16,3.56-2.31,0-1.35-.86-1.93-2.11-2.21-3.37-.87-13.09-1.93-20.2-8.18-3.66-3.27-6.16-7.79-6.16-14.53,0-13.95,10.77-23.47,28.38-23.47,8.46,0,18.47,2.21,24.82,5.48v22.8c-9-4.52-17.51-6.15-21.07-6.15-2.79,0-3.56,1.06-3.56,2.11,0,1.45,1.06,2,2.21,2.41,2.89.86,12.51,2,19.34,7.4a18.31,18.31,0,0,1,7,15c0,13.37-10.77,22.7-29,22.7-8.75,0-19.24-2.11-26.07-5.67Z"/><rect class="cls-2" x="183.52" y="5.11" width="28.67" height="69.64"/><path class="cls-3" d="M258.12,4.05C280,4.05,297,19.73,297,39.93s-17,35.88-38.86,35.88-38.86-15.68-38.86-35.88,17-35.88,38.86-35.88"/><polygon class="cls-2" points="303.78 5.11 329.85 5.11 350.34 34.83 350.53 34.74 350.53 5.11 376.31 5.11 376.31 74.75 350.24 74.75 329.75 45.03 329.56 45.13 329.56 74.75 303.78 74.75 303.78 5.11"/><polygon class="cls-2" points="456.51 28.58 456.41 28.39 435.35 28.39 435.35 5.11 499.12 5.11 499.22 5.3 474.11 52.44 474.21 52.63 497.49 52.63 497.49 74.75 432.07 74.75 431.98 74.56 456.51 28.58"/><polygon class="cls-2" points="504.9 5.11 555.02 5.11 555.02 28.39 533.57 28.39 533.57 32.14 550.88 32.14 550.88 48.69 533.57 48.69 533.57 52.63 556.37 52.63 556.37 74.75 504.9 74.75 504.9 5.11"/><path class="cls-2" d="M563.5,5.11h28.57c14.33,0,33.86,3.56,33.86,22.12a19.45,19.45,0,0,1-8.76,16.55l15.87,31h-30.1l-10.4-22.9h-.38v22.9H563.5Zm30.78,30.78c4.52,0,6.54-2.4,6.54-5.39s-2.12-5.29-6.54-5.29h-2.12V35.89Z"/><path class="cls-3" d="M669.9,4.05c21.83,0,38.86,15.68,38.86,35.88s-17,35.88-38.86,35.88S631,60.13,631,39.93s17-35.88,38.86-35.88"/><path class="cls-1" d="M238.46,56.16a2,2,0,0,1-1-2c0-4.52,0-9,0-13.55a5.94,5.94,0,0,1,.59-2.75c-.57,0-1.08,0-1.58,0a1.15,1.15,0,0,1-1.26-1.58c.21-.59.37-1.21.63-1.78A2.25,2.25,0,0,1,238,33.16c.55,0,1.11,0,1.67,0,.71-2,1.38-4,2.12-5.93.55-1.46,1.14-2.9,1.81-4.3a3.92,3.92,0,0,1,2-1.67,15.16,15.16,0,0,1,4.54-1.41,20.6,20.6,0,0,1,2.06-.23c2.4-.09,4.81-.23,7.21-.19,2,0,4.06.25,6.1.4a14.5,14.5,0,0,1,5,1.29,5.07,5.07,0,0,1,2.82,3.13c1,2.88,2.06,5.73,3.12,8.58a.66.66,0,0,0,.45.32,5.52,5.52,0,0,0,.91,0,2.59,2.59,0,0,1,2.92,2.05c.13.39.23.8.34,1.21a1.07,1.07,0,0,1-1.11,1.46h-1.75c.88,1.61.57,3.31.58,5,0,3.78,0,7.56,0,11.34a2,2,0,0,1-1,2H270.6a2.08,2.08,0,0,1-1.08-2.11c0-.79,0-1.59,0-2.38H246.74c0,.81,0,1.6,0,2.38a2.07,2.07,0,0,1-1.09,2.11ZM273,33.67c-.91-2.65-1.88-5.31-2.72-8a2.55,2.55,0,0,0-1.93-1.74,26.23,26.23,0,0,0-7.1-.94,56.47,56.47,0,0,0-8.82.18c-1.46.2-2.93.37-4.38.67a2.62,2.62,0,0,0-2.1,1.58,56.49,56.49,0,0,0-2.67,8.33C247.49,36,269,36,273,33.67M245.11,44.89s0,0,0-.07l2.61-.16a1.19,1.19,0,0,0,.58-2.26c-1.29-.64-2.59-1.25-3.9-1.82a6.77,6.77,0,0,0-3.25-.77,1.33,1.33,0,0,0-1.3,1.31c0,.51,0,1,0,1.55-.12,1.17.56,1.59,1.43,1.75,1.26.24,2.55.32,3.83.47m26.22,0c1.11-.13,2.4-.21,3.66-.45.84-.15,1.55-.59,1.43-1.7-.06-.52,0-1,0-1.56a1.71,1.71,0,0,0-.36-.89,1.83,1.83,0,0,0-2.07-.38,40,40,0,0,0-3.79,1.39,13,13,0,0,0-2.29,1.17,1.53,1.53,0,0,0-.57,1.1.93.93,0,0,0,.88,1l3.14.3"/><path class="cls-3" d="M414.14,31.7l.14.28L416.8,37c.06.12.12.25.19.37a2.65,2.65,0,0,0,1.39,1.2A10.63,10.63,0,0,0,420,39l4.18.81,4.19.82c.46.09.91.19,1.38.25a2.93,2.93,0,0,0,2.62-1,2.78,2.78,0,0,0,.55-.84,2.48,2.48,0,0,0,.16-1.42,4,4,0,0,0-.46-1.38,2.76,2.76,0,0,0-2-1.42l-6.4-1.24-2.28-.44a.43.43,0,0,1-.32-.26Q419,27.8,416.45,22.68c-.28-.57-.54-1.15-.85-1.7A8,8,0,0,0,413,18.07a7.59,7.59,0,0,0-2.77-1.19,6.29,6.29,0,0,0-2.83.11,7,7,0,0,0-1.71.69l-10.41,5.93c-.33.19-.65.4-1,.61a2.93,2.93,0,0,0-1,1.1c-1.84,3.5-3.66,7-5.51,10.48a3.08,3.08,0,0,0,.62,3.69,3,3,0,0,0,4.64-.63c.25-.4.46-.83.68-1.25l4.46-8.51a.88.88,0,0,1,.36-.38c.81-.45,1.61-.92,2.42-1.38l.26-.15c0,.07,0,.12,0,.15-.42,2-.85,3.91-1.27,5.86s-.88,3.91-1.3,5.87c-.19.88-.31,1.77-.46,2.65L397.51,46c-.24,1.4-.48,2.8-.71,4.19s-.48,2.77-.71,4.15c-.14.81-.29,1.61-.42,2.41a.6.6,0,0,1-.15.32q-3,3.51-5.95,7L386,68.29a3.58,3.58,0,0,0-.87,2.81A3.65,3.65,0,0,0,391.55,73c1.17-1.35,2.32-2.74,3.48-4.11q4-4.69,7.94-9.38a6.12,6.12,0,0,0,.88-1.25,5.2,5.2,0,0,0,.39-1.4q.48-2.68.94-5.39l.81-4.67a.73.73,0,0,1,0-.16l.15.13c2.87,3,5.73,6,8.6,9a.51.51,0,0,1,.14.4V71.52a3.84,3.84,0,0,0,.38,1.77,3.58,3.58,0,0,0,2.69,2,3.63,3.63,0,0,0,4.17-3,4.62,4.62,0,0,0,.06-.74V53a4,4,0,0,0-1.16-2.82c-.83-.84-1.62-1.72-2.44-2.58q-3.11-3.31-6.24-6.61a.45.45,0,0,1-.13-.45q.74-3.45,1.46-6.9c.12-.58.25-1.16.37-1.74a.93.93,0,0,1,.06-.19"/><path class="cls-3" d="M417.62,10.15a6,6,0,1,0-6,6,6,6,0,0,0,6-6"/><path class="cls-1" d="M696.16,51.11a22.45,22.45,0,0,1-.37,2.48,10.15,10.15,0,0,1-7.45,7.67,10.52,10.52,0,0,1-9.74-18l.3-.27c-.82-1.76-1.62-3.48-2.4-5.14-.55,1.13-1.12,2.32-1.72,3.48a7.5,7.5,0,0,1-.85,1.35,4.33,4.33,0,0,0-.89,2.18c-.6,3.95-1.24,7.91-1.86,11.86-.13.79-.63,1.17-1.23.92a.67.67,0,0,1-.47-.68c0-2.16.08-4.33.09-6.49,0-1,0-1.9-.06-2.84-.34.26-.73.58-1.14.88-.62.44-1.23.88-1.87,1.29a.53.53,0,0,0-.27.62,10.52,10.52,0,0,1-7.47,11.67c-.61.18-1.24.27-1.86.41l-1.6,0a3.35,3.35,0,0,0-.44-.07A9.79,9.79,0,0,1,650,60.7a10.18,10.18,0,0,1-4.44-10.64,10.39,10.39,0,0,1,11.59-8.51,10.25,10.25,0,0,1,7.69,4.93c.24.37.44.76.67,1.17a22.22,22.22,0,0,0,3.74-3l-.12-.1c-3-1.76-6.06-3.55-9.11-5.28a3.08,3.08,0,0,1-1.74-2.7c-.1-3.22-.17-6.44-.24-9.66A3,3,0,0,1,659.81,24a3.13,3.13,0,0,1,3.45.8q2.64,2.81,5.29,5.59a1.06,1.06,0,0,0,.51.31l6.91,1.1c1,.16,1.31.49,1.51,1.51a1.66,1.66,0,0,0,.06.21c.68,1.76,1.34,3.54,2.05,5.29.39.95.88,1.86,1.31,2.77h.15l.13,0a10.53,10.53,0,0,1,14.76,7.7c.09.46.14.92.21,1.39,0,.15,0,.3,0,.45m-34.41,1a23.19,23.19,0,0,1-5.88,1.25,1.2,1.2,0,1,1-.14-2.39,20.1,20.1,0,0,0,7.37-2l.23-.11a8.14,8.14,0,1,0-5.43,11,8,8,0,0,0,6-8.63c-.72.28-1.42.58-2.14.84M684,46.87c.83,1.19,1.73,2.34,2.62,3.48a1.23,1.23,0,0,1,0,1.78,1.19,1.19,0,0,1-1.76-.23,40.85,40.85,0,0,1-4.09-5.76c-.2-.32-.39-.66-.59-1a8,8,0,0,0-1.66,10,8.15,8.15,0,1,0,3.59-11.33c.65,1,1.25,2.09,1.94,3.08M674.56,33.6c-1.94,0-3.89.1-5.83.13a1,1,0,0,1-.52-.15c-1.36-.89-2.72-1.8-4.12-2.73a3.15,3.15,0,0,0,0,.37c0,1.23.05,2.47.1,3.7a.8.8,0,0,0,.22.52l7.38,6,.12,0A18.61,18.61,0,0,0,675,33.59h-.48"/><path class="cls-1" d="M660.56,14.3a4.28,4.28,0,0,0-2.36,1.46,3.81,3.81,0,0,0,6,4.76,3.83,3.83,0,0,0-2.2-6.17,1.13,1.13,0,0,1-.24-.08l-1.16,0"/><path class="cls-1" d="M685.4,30.72l-3.25.09c-1.08,0-1.54.65-1.26,1.71.43,1.58.86,3.16,1.31,4.74a1.22,1.22,0,0,0,1.34,1l4.4-.11A1.18,1.18,0,0,0,689.2,37c.29-1.66.56-3.32.84-5a1.18,1.18,0,0,0-1.17-1.4c-1.16,0-2.31.05-3.47.08h0"/><path class="cls-2" d="M.29,117.61l10.4-14.09H.29V99.39H16.83v3.76L6.43,117.28H17.06v4.13H.29Z"/><path class="cls-2" d="M27.58,105.07c4.76,0,8,3.56,8,8.78v.92H23.72a4.3,4.3,0,0,0,4.59,3.7,6.56,6.56,0,0,0,4.26-1.59l1.84,2.71a9.93,9.93,0,0,1-6.56,2.21c-4.85,0-8.52-3.27-8.52-8.38A8.11,8.11,0,0,1,27.58,105.07Zm-3.92,6.86h7.85a3.7,3.7,0,0,0-3.93-3.53A3.82,3.82,0,0,0,23.66,111.93Z"/><path class="cls-2" d="M38.44,105.46h4.19v2.18a6.81,6.81,0,0,1,5.08-2.54v4.09a5.62,5.62,0,0,0-1.15-.13,5.31,5.31,0,0,0-3.93,1.82v10.53H38.44Z"/><path class="cls-2" d="M49.13,113.42a8.08,8.08,0,0,1,8.42-8.35,8.37,8.37,0,1,1,0,16.73A8.08,8.08,0,0,1,49.13,113.42Zm12.51,0c0-2.48-1.49-4.62-4.09-4.62s-4.06,2.14-4.06,4.62,1.45,4.65,4.06,4.65S61.64,115.93,61.64,113.42Z"/><path class="cls-2" d="M88.17,119.36a6.19,6.19,0,0,1-4.92,2.44c-4,0-7.06-3-7.06-8.35s3-8.38,7.06-8.38a6.13,6.13,0,0,1,4.92,2.44V99.39h4.22v22H88.17Zm0-8.75a4.57,4.57,0,0,0-3.63-1.81c-2.38,0-4,1.88-4,4.65s1.65,4.62,4,4.62a4.57,4.57,0,0,0,3.63-1.81Z"/><path class="cls-2" d="M103.61,105.07c4.76,0,8,3.56,8,8.78v.92H99.75a4.3,4.3,0,0,0,4.59,3.7,6.56,6.56,0,0,0,4.26-1.59l1.85,2.71a10,10,0,0,1-6.57,2.21c-4.85,0-8.52-3.27-8.52-8.38A8.11,8.11,0,0,1,103.61,105.07Zm-3.92,6.86h7.85a3.69,3.69,0,0,0-3.93-3.53A3.82,3.82,0,0,0,99.69,111.93Z"/><path class="cls-2" d="M124,119.76a6.62,6.62,0,0,1-5.05,2,5.3,5.3,0,0,1-5.54-5.28c0-3.73,3-5.08,5.54-5.08a6.43,6.43,0,0,1,5.05,2v-2.22c0-1.61-1.38-2.67-3.5-2.67a6.72,6.72,0,0,0-4.65,1.88l-1.59-2.8a10.46,10.46,0,0,1,7-2.51c3.63,0,7,1.45,7,6v10.3H124Zm0-4.16a4.17,4.17,0,0,0-3.37-1.39c-1.65,0-3,.86-3,2.41s1.35,2.34,3,2.34a4.2,4.2,0,0,0,3.37-1.38Z"/><path class="cls-2" d="M133.05,117.44v-8.31h-2.64v-3.67h2.64v-4.35h4.22v4.35h3.24v3.67h-3.24v7.19c0,1,.53,1.75,1.46,1.75a2.3,2.3,0,0,0,1.45-.46l.89,3.17a5.19,5.19,0,0,1-3.5,1C134.63,121.8,133.05,120.28,133.05,117.44Z"/><path class="cls-2" d="M154,111.7c0-2.21-1.16-2.9-3-2.9a4.65,4.65,0,0,0-3.63,1.88v10.73h-4.19v-22h4.19v8.15a7.41,7.41,0,0,1,5.62-2.47c3.49,0,5.18,1.91,5.18,5v11.32H154Z"/><path class="cls-2" d="M162.62,116.39a9.1,9.1,0,0,0,5.51,2.18c1.81,0,2.67-.63,2.67-1.62s-1.39-1.52-3.2-1.88c-2.74-.53-6.27-1.19-6.27-5,0-2.68,2.34-5,6.53-5a10.15,10.15,0,0,1,6.44,2.18l-1.68,2.87a6.76,6.76,0,0,0-4.72-1.85c-1.52,0-2.51.56-2.51,1.49s1.25,1.35,3,1.71c2.73.53,6.4,1.26,6.4,5.22,0,2.9-2.48,5.11-6.9,5.11a10.74,10.74,0,0,1-7.13-2.47Z"/><path class="cls-2" d="M179.91,116.42a2.68,2.68,0,1,1-2.68,2.68A2.7,2.7,0,0,1,179.91,116.42Z"/><path class="cls-2" d="M193.64,117.61,204,103.52H193.64V99.39h16.53v3.76l-10.4,14.13H210.4v4.13H193.64Z"/><path class="cls-2" d="M220.93,105.07c4.75,0,8,3.56,8,8.78v.92H217.07a4.29,4.29,0,0,0,4.58,3.7,6.52,6.52,0,0,0,4.26-1.59l1.85,2.71a10,10,0,0,1-6.57,2.21c-4.85,0-8.51-3.27-8.51-8.38A8.11,8.11,0,0,1,220.93,105.07ZM217,111.93h7.85a3.68,3.68,0,0,0-3.92-3.53A3.83,3.83,0,0,0,217,111.93Z"/><path class="cls-2" d="M231.78,105.46H236v2.18a6.84,6.84,0,0,1,5.09-2.54v4.09a5.82,5.82,0,0,0-1.16-.13,5.35,5.35,0,0,0-3.93,1.82v10.53h-4.19Z"/><path class="cls-2" d="M242.47,113.42a8.44,8.44,0,1,1,8.42,8.38A8.08,8.08,0,0,1,242.47,113.42Zm12.51,0c0-2.48-1.48-4.62-4.09-4.62s-4.06,2.14-4.06,4.62,1.45,4.65,4.06,4.65S255,115.93,255,113.42Z"/><path class="cls-2" d="M271,116.39a9.1,9.1,0,0,0,5.51,2.18c1.81,0,2.67-.63,2.67-1.62s-1.39-1.52-3.2-1.88c-2.74-.53-6.27-1.19-6.27-5,0-2.68,2.34-5,6.53-5a10.15,10.15,0,0,1,6.44,2.18L281,110.12a6.76,6.76,0,0,0-4.72-1.85c-1.52,0-2.51.56-2.51,1.49s1.25,1.35,3,1.71c2.74.53,6.41,1.26,6.41,5.22,0,2.9-2.48,5.11-6.9,5.11a10.74,10.74,0,0,1-7.13-2.47Z"/><path class="cls-2" d="M293.36,105.07c4.75,0,8,3.56,8,8.78v.92H289.5a4.3,4.3,0,0,0,4.59,3.7,6.51,6.51,0,0,0,4.25-1.59l1.85,2.71a9.94,9.94,0,0,1-6.57,2.21c-4.85,0-8.51-3.27-8.51-8.38A8.11,8.11,0,0,1,293.36,105.07Zm-3.93,6.86h7.86a3.7,3.7,0,0,0-3.93-3.53A3.83,3.83,0,0,0,289.43,111.93Z"/><path class="cls-2" d="M304.22,105.46h4.19v2.18a6.81,6.81,0,0,1,5.08-2.54v4.09a5.71,5.71,0,0,0-1.15-.13,5.31,5.31,0,0,0-3.93,1.82v10.53h-4.19Z"/><path class="cls-2" d="M315.5,100.61A2.54,2.54,0,0,1,318,98.1a2.51,2.51,0,1,1-2.51,2.51Zm.43,4.85h4.19v16h-4.19Z"/><path class="cls-2" d="M323.09,113.42a8.44,8.44,0,1,1,8.42,8.38A8.08,8.08,0,0,1,323.09,113.42Zm12.51,0c0-2.48-1.48-4.62-4.09-4.62s-4.06,2.14-4.06,4.62,1.45,4.65,4.06,4.65S335.6,115.93,335.6,113.42Z"/><path class="cls-2" d="M353.65,119.39A7.46,7.46,0,0,1,348,121.8c-3.5,0-5.15-1.91-5.15-5V105.46h4.19v9.68c0,2.21,1.16,2.93,2.94,2.93a4.69,4.69,0,0,0,3.63-1.81v-10.8h4.19v16h-4.19Z"/><path class="cls-2" d="M362.26,116.39a9.13,9.13,0,0,0,5.51,2.18c1.82,0,2.68-.63,2.68-1.62s-1.39-1.52-3.2-1.88c-2.74-.53-6.28-1.19-6.28-5,0-2.68,2.35-5,6.54-5a10.17,10.17,0,0,1,6.44,2.18l-1.69,2.87a6.72,6.72,0,0,0-4.72-1.85c-1.52,0-2.5.56-2.5,1.49s1.25,1.35,3,1.71c2.74.53,6.4,1.26,6.4,5.22,0,2.9-2.47,5.11-6.89,5.11a10.72,10.72,0,0,1-7.13-2.47Z"/><path class="cls-2" d="M385.26,100.61a2.54,2.54,0,0,1,2.51-2.51,2.51,2.51,0,1,1-2.51,2.51Zm.43,4.85h4.19v16h-4.19Z"/><path class="cls-2" d="M404.63,111.77c0-2.21-1.15-3-2.93-3a4.53,4.53,0,0,0-3.63,1.88v10.73h-4.2v-16h4.2v2.08a7.29,7.29,0,0,1,5.57-2.47c3.5,0,5.19,2,5.19,5.08v11.26h-4.2Z"/><path class="cls-2" d="M417,121.83c0,3.64-1.85,6-5.68,6a8.84,8.84,0,0,1-1.81-.16l.26-3.43a4.8,4.8,0,0,0,.92.1c1.23,0,2.12-.76,2.12-2.55V105.46H417Zm-4.62-21.22a2.51,2.51,0,1,1,5,0,2.51,2.51,0,1,1-5,0Z"/><path class="cls-2" d="M431.76,119.39a7.46,7.46,0,0,1-5.61,2.41c-3.5,0-5.15-1.91-5.15-5V105.46h4.19v9.68c0,2.21,1.16,2.93,2.94,2.93a4.7,4.7,0,0,0,3.63-1.81v-10.8H436v16h-4.19Z"/><path class="cls-2" d="M439.94,105.46h4.19v2.18a6.84,6.84,0,0,1,5.09-2.54v4.09a5.82,5.82,0,0,0-1.16-.13,5.33,5.33,0,0,0-3.93,1.82v10.53h-4.19Z"/><path class="cls-2" d="M451.23,100.61a2.51,2.51,0,1,1,5,0,2.51,2.51,0,1,1-5,0Zm.43,4.85h4.19v16h-4.19Z"/><path class="cls-2" d="M467.07,105.07c4.75,0,8,3.56,8,8.78v.92H463.21a4.29,4.29,0,0,0,4.58,3.7,6.52,6.52,0,0,0,4.26-1.59l1.85,2.71a9.94,9.94,0,0,1-6.57,2.21c-4.85,0-8.51-3.27-8.51-8.38A8.11,8.11,0,0,1,467.07,105.07Zm-3.93,6.86H471a3.7,3.7,0,0,0-3.93-3.53A3.83,3.83,0,0,0,463.14,111.93Z"/><path class="cls-2" d="M478.35,116.39a9.13,9.13,0,0,0,5.52,2.18c1.81,0,2.67-.63,2.67-1.62s-1.39-1.52-3.2-1.88c-2.74-.53-6.27-1.19-6.27-5,0-2.68,2.34-5,6.53-5a10.17,10.17,0,0,1,6.44,2.18l-1.69,2.87a6.72,6.72,0,0,0-4.72-1.85c-1.51,0-2.51.56-2.51,1.49s1.26,1.35,3,1.71c2.74.53,6.4,1.26,6.4,5.22,0,2.9-2.47,5.11-6.89,5.11a10.72,10.72,0,0,1-7.13-2.47Z"/><path class="cls-2" d="M495.64,116.42A2.68,2.68,0,1,1,493,119.1,2.71,2.71,0,0,1,495.64,116.42Z"/><path class="cls-2" d="M509.37,117.61l10.4-14.09h-10.4V99.39h16.54v3.76l-10.4,14.13h10.63v4.13H509.37Z"/><path class="cls-2" d="M536.66,105.07c4.76,0,8,3.56,8,8.78v.92H532.8a4.3,4.3,0,0,0,4.59,3.7,6.54,6.54,0,0,0,4.26-1.59l1.85,2.71a10,10,0,0,1-6.57,2.21c-4.85,0-8.52-3.27-8.52-8.38A8.11,8.11,0,0,1,536.66,105.07Zm-3.92,6.86h7.85a3.69,3.69,0,0,0-3.93-3.53A3.83,3.83,0,0,0,532.74,111.93Z"/><path class="cls-2" d="M547.52,105.46h4.19v2.18a6.84,6.84,0,0,1,5.09-2.54v4.09a5.82,5.82,0,0,0-1.16-.13,5.33,5.33,0,0,0-3.93,1.82v10.53h-4.19Z"/><path class="cls-2" d="M558.21,113.42a8.44,8.44,0,1,1,8.42,8.38A8.08,8.08,0,0,1,558.21,113.42Zm12.51,0c0-2.48-1.48-4.62-4.09-4.62s-4.06,2.14-4.06,4.62,1.45,4.65,4.06,4.65S570.72,115.93,570.72,113.42Z"/><path class="cls-2" d="M593.52,105.07c4.76,0,8,3.56,8,8.78v.92H589.66a4.3,4.3,0,0,0,4.59,3.7,6.54,6.54,0,0,0,4.26-1.59l1.85,2.71a10,10,0,0,1-6.57,2.21c-4.85,0-8.52-3.27-8.52-8.38A8.11,8.11,0,0,1,593.52,105.07Zm-3.92,6.86h7.85a3.69,3.69,0,0,0-3.93-3.53A3.82,3.82,0,0,0,589.6,111.93Z"/><path class="cls-2" d="M609.5,116l-3.67,5.38h-4.65l5.64-8.19-5.31-7.76h4.69l3.3,4.92,3.26-4.92h4.69l-5.35,7.76,5.71,8.19h-4.68Z"/><path class="cls-2" d="M626.36,105.07a7.4,7.4,0,0,1,6.3,2.87l-2.74,2.57a3.86,3.86,0,0,0-3.36-1.71,4.27,4.27,0,0,0-4.33,4.62c0,2.77,1.79,4.65,4.33,4.65a4,4,0,0,0,3.36-1.71l2.74,2.54a7.34,7.34,0,0,1-6.3,2.9,8.37,8.37,0,1,1,0-16.73Z"/><path class="cls-2" d="M646,119.39a7.48,7.48,0,0,1-5.62,2.41c-3.49,0-5.14-1.91-5.14-5V105.46h4.19v9.68c0,2.21,1.15,2.93,2.93,2.93a4.72,4.72,0,0,0,3.64-1.81v-10.8h4.19v16H646Z"/><path class="cls-2" d="M654.61,116.39a9.1,9.1,0,0,0,5.51,2.18c1.81,0,2.67-.63,2.67-1.62s-1.38-1.52-3.2-1.88c-2.74-.53-6.27-1.19-6.27-5,0-2.68,2.34-5,6.53-5a10.15,10.15,0,0,1,6.44,2.18l-1.68,2.87a6.76,6.76,0,0,0-4.72-1.85c-1.52,0-2.51.56-2.51,1.49s1.25,1.35,3,1.71c2.74.53,6.41,1.26,6.41,5.22,0,2.9-2.48,5.11-6.9,5.11a10.74,10.74,0,0,1-7.13-2.47Z"/><path class="cls-2" d="M677,105.07c4.75,0,8,3.56,8,8.78v.92H673.12a4.3,4.3,0,0,0,4.59,3.7,6.51,6.51,0,0,0,4.25-1.59l1.85,2.71a9.94,9.94,0,0,1-6.57,2.21c-4.85,0-8.51-3.27-8.51-8.38A8.11,8.11,0,0,1,677,105.07Zm-3.93,6.86h7.86A3.7,3.7,0,0,0,677,108.4,3.83,3.83,0,0,0,673.05,111.93Z"/><path class="cls-2" d="M688.27,116.39a9.1,9.1,0,0,0,5.51,2.18c1.81,0,2.67-.63,2.67-1.62s-1.39-1.52-3.2-1.88c-2.74-.53-6.27-1.19-6.27-5,0-2.68,2.34-5,6.53-5a10.17,10.17,0,0,1,6.44,2.18l-1.68,2.87a6.76,6.76,0,0,0-4.72-1.85c-1.52,0-2.51.56-2.51,1.49s1.25,1.35,3,1.71c2.74.53,6.41,1.26,6.41,5.22,0,2.9-2.48,5.11-6.9,5.11a10.74,10.74,0,0,1-7.13-2.47Z"/><path class="cls-2" d="M705.56,116.42a2.68,2.68,0,1,1-2.68,2.68A2.7,2.7,0,0,1,705.56,116.42Z"/></svg>