<?xml version="1.0" encoding="utf-8"?>
<!-- Generator: Adobe Illustrator 24.0.1, SVG Export Plug-In . SVG Version: 6.00 Build 0)  -->
<svg version="1.1" id="Layer_1" xmlns="http://www.w3.org/2000/svg" xmlns:xlink="http://www.w3.org/1999/xlink" x="0px" y="0px"
	 viewBox="0 0 324.76 65.12" style="enable-background:new 0 0 324.76 65.12;" xml:space="preserve">
<style type="text/css">
	.st0{fill:#4D868E;}
	.st1{fill:#F58220;}
</style>
<g>
	<rect x="86.63" y="5.57" class="st0" width="12.72" height="30.9"/>
	<polygon class="st0" points="5.1,5.57 18.85,5.57 23.41,21.96 23.5,21.96 28.36,5.57 40.78,5.57 28.96,36.47 16.92,36.47 	"/>
	<rect x="42.92" y="5.57" class="st0" width="12.72" height="30.9"/>
	<path class="st0" d="M59.48,23.92c4.14,2.69,8.32,3.67,10.16,3.67c1.28,0,1.58-0.51,1.58-1.02c0-0.6-0.38-0.85-0.94-0.98
		c-1.49-0.38-5.8-0.85-8.96-3.63c-1.62-1.45-2.73-3.46-2.73-6.44c0-6.19,4.78-10.41,12.59-10.41c3.76,0,8.2,0.98,11.01,2.43v10.12
		c-4.01-2.01-7.77-2.73-9.35-2.73c-1.24,0-1.58,0.47-1.58,0.94c0,0.64,0.47,0.89,0.98,1.07c1.28,0.38,5.55,0.9,8.58,3.29
		c2.09,1.71,3.11,3.88,3.11,6.66c0,5.93-4.78,10.07-12.89,10.07c-3.88,0-8.53-0.94-11.56-2.52V23.92z"/>
	<polygon class="st0" points="139.98,5.57 151.55,5.57 160.64,18.76 160.72,18.72 160.72,5.57 172.16,5.57 172.16,36.47 
		160.6,36.47 151.5,23.28 151.42,23.33 151.42,36.47 139.98,36.47 	"/>
	<polygon class="st0" points="207.74,15.98 207.7,15.9 198.35,15.9 198.35,5.57 226.65,5.57 226.69,5.66 215.55,26.57 215.59,26.65 
		225.92,26.65 225.92,36.47 196.9,36.47 196.86,36.38 	"/>
	<polygon class="st0" points="229.21,5.57 251.45,5.57 251.45,15.9 241.93,15.9 241.93,17.56 249.61,17.56 249.61,24.9 241.93,24.9 
		241.93,26.65 252.05,26.65 252.05,36.47 229.21,36.47 	"/>
	<path class="st0" d="M255.21,5.57h12.68c6.36,0,15.02,1.58,15.02,9.82c0,3.33-1.58,5.72-3.88,7.34l7.04,13.74h-13.36l-4.61-10.16
		h-0.17v10.16h-12.72V5.57z M268.86,19.23c2.01,0,2.9-1.07,2.9-2.39c0-1.32-0.94-2.35-2.9-2.35h-0.94v4.74H268.86z"/>
	<g>
		<path class="st1" d="M125.14,14.69c-0.14-0.46-0.46-0.65-0.85-0.77c-1.02-0.31-2.09-0.4-3.15-0.42c-1.3-0.03-2.61-0.09-3.91,0.08
			c-0.65,0.09-1.3,0.17-1.94,0.29c-0.4,0.08-0.77,0.27-0.93,0.7c-0.47,1.21-0.9,2.43-1.18,3.7c1.85,0.99,11.37,0.99,13.19-0.03
			C125.94,17.07,125.51,15.89,125.14,14.69z"/>
		<path class="st1" d="M115.37,22.12c-0.57-0.28-1.15-0.55-1.73-0.81c-0.46-0.2-0.92-0.38-1.44-0.34c-0.33,0.03-0.57,0.25-0.57,0.58
			c-0.01,0.23,0.02,0.46-0.01,0.69c-0.05,0.52,0.25,0.71,0.64,0.78c0.56,0.1,1.13,0.14,1.7,0.21c0-0.01,0.01-0.02,0.01-0.03
			c0.39-0.02,0.77-0.04,1.16-0.07c0.31-0.02,0.47-0.15,0.55-0.45C115.71,22.49,115.61,22.24,115.37,22.12z"/>
		<path class="st1" d="M119.73,5.1c-9.69,0-17.24,6.96-17.24,15.92c0,8.96,7.55,15.92,17.24,15.92s17.24-6.96,17.24-15.92
			C136.97,12.06,129.41,5.1,119.73,5.1z M129.4,20.11c-0.24,0.01-0.49,0-0.78,0c0.39,0.72,0.25,1.47,0.26,2.2
			c0.01,1.68-0.01,3.35,0.01,5.03c0,0.39-0.09,0.68-0.44,0.88h-3.19c-0.38-0.2-0.5-0.53-0.48-0.93c0.02-0.35,0-0.71,0-1.06h-10.11
			c0,0.36-0.01,0.71,0,1.06c0.02,0.41-0.1,0.73-0.48,0.93H111c-0.34-0.2-0.44-0.49-0.44-0.88c0.02-2,0.01-4.01,0-6.01
			c0-0.41,0.06-0.81,0.26-1.22c-0.25,0-0.48-0.01-0.7,0c-0.38,0.03-0.71-0.26-0.56-0.7c0.09-0.26,0.16-0.53,0.28-0.79
			c0.18-0.4,0.52-0.59,0.95-0.61c0.25-0.01,0.49,0,0.74,0c0.31-0.88,0.61-1.76,0.94-2.63c0.24-0.65,0.51-1.28,0.8-1.91
			c0.17-0.37,0.54-0.57,0.89-0.74c0.64-0.31,1.31-0.53,2.01-0.63c0.3-0.04,0.61-0.09,0.91-0.1c1.07-0.04,2.13-0.1,3.2-0.09
			c0.9,0.01,1.8,0.11,2.71,0.18c0.77,0.05,1.5,0.26,2.2,0.57c0.62,0.28,1.03,0.73,1.25,1.39c0.44,1.28,0.92,2.54,1.39,3.81
			c0.02,0.07,0.12,0.13,0.2,0.14c0.13,0.02,0.27,0.01,0.4,0.01c0.7-0.03,1.08,0.26,1.29,0.91c0.06,0.18,0.1,0.36,0.15,0.54
			C129.99,19.84,129.79,20.1,129.4,20.11z"/>
		<path class="st1" d="M127.67,21.17c-0.25-0.31-0.62-0.25-0.92-0.17c-0.57,0.16-1.13,0.39-1.68,0.62c-0.35,0.14-0.7,0.31-1.02,0.52
			c-0.14,0.09-0.25,0.32-0.25,0.49c-0.01,0.21,0.11,0.43,0.39,0.45c0.44,0.04,0.87,0.08,1.39,0.14c0.5-0.06,1.07-0.1,1.63-0.2
			c0.37-0.07,0.68-0.26,0.63-0.76c-0.02-0.23,0.01-0.46-0.01-0.69C127.82,21.43,127.76,21.28,127.67,21.17z"/>
	</g>
	<path class="st1" d="M188.94,17.37c0.03,0.06,0.05,0.09,0.06,0.12c0.37,0.75,0.74,1.5,1.12,2.24c0.03,0.06,0.06,0.11,0.09,0.16
		c0.14,0.25,0.34,0.43,0.62,0.53c0.23,0.09,0.46,0.13,0.7,0.18c0.62,0.12,1.24,0.24,1.86,0.36c0.62,0.12,1.24,0.24,1.85,0.36
		c0.2,0.04,0.41,0.08,0.61,0.11c0.46,0.06,0.85-0.1,1.16-0.43c0.1-0.11,0.18-0.24,0.24-0.37c0.1-0.2,0.09-0.42,0.07-0.63
		c-0.03-0.22-0.1-0.42-0.2-0.61c-0.19-0.37-0.51-0.55-0.9-0.63c-0.95-0.19-1.89-0.37-2.84-0.55c-0.34-0.07-0.67-0.13-1.01-0.19
		c-0.07-0.01-0.11-0.05-0.14-0.12c-0.75-1.52-1.51-3.03-2.26-4.55c-0.13-0.25-0.24-0.51-0.38-0.75c-0.29-0.52-0.66-0.96-1.16-1.29
		c-0.38-0.25-0.78-0.44-1.23-0.53c-0.42-0.08-0.84-0.06-1.26,0.05c-0.27,0.07-0.52,0.17-0.76,0.31c-1.54,0.88-3.08,1.75-4.62,2.63
		c-0.15,0.08-0.29,0.18-0.43,0.27c-0.18,0.12-0.33,0.29-0.43,0.49c-0.81,1.55-1.62,3.1-2.44,4.65c-0.32,0.61-0.11,1.28,0.27,1.63
		c0.62,0.57,1.62,0.44,2.06-0.28c0.11-0.18,0.2-0.37,0.3-0.56c0.66-1.26,1.32-2.51,1.98-3.77c0.04-0.07,0.09-0.13,0.16-0.17
		c0.36-0.2,0.71-0.41,1.07-0.62c0.03-0.02,0.07-0.04,0.12-0.06c0,0.03,0,0.05,0,0.07c-0.19,0.87-0.38,1.73-0.57,2.6
		c-0.19,0.87-0.39,1.74-0.58,2.61c-0.08,0.39-0.14,0.78-0.2,1.18c-0.11,0.63-0.21,1.25-0.32,1.88c-0.11,0.62-0.21,1.24-0.32,1.86
		c-0.1,0.62-0.21,1.23-0.32,1.84c-0.06,0.36-0.13,0.71-0.18,1.07c-0.01,0.06-0.03,0.1-0.07,0.14c-0.88,1.04-1.76,2.08-2.64,3.12
		c-0.53,0.62-1.06,1.25-1.59,1.88c-0.31,0.36-0.44,0.78-0.39,1.25c0.07,0.65,0.51,1.18,1.13,1.36c0.69,0.2,1.27,0.01,1.74-0.53
		c0.52-0.6,1.03-1.21,1.54-1.82c1.17-1.39,2.35-2.78,3.52-4.16c0.15-0.17,0.29-0.35,0.39-0.55c0.09-0.2,0.14-0.41,0.17-0.62
		c0.14-0.8,0.28-1.59,0.41-2.39c0.12-0.69,0.24-1.38,0.36-2.07c0-0.02,0.01-0.04,0.02-0.07c0.03,0.02,0.05,0.04,0.07,0.06
		c1.27,1.34,2.54,2.67,3.82,4.01c0.05,0.05,0.06,0.11,0.06,0.18c0,2.27,0,4.53,0,6.8c0,0.28,0.04,0.54,0.17,0.78
		c0.25,0.49,0.65,0.79,1.19,0.88c0.86,0.15,1.7-0.44,1.85-1.33c0.02-0.11,0.02-0.22,0.02-0.33c0-2.74,0-5.49,0-8.23
		c0-0.49-0.18-0.9-0.52-1.25c-0.37-0.38-0.72-0.77-1.08-1.15c-0.92-0.98-1.84-1.96-2.77-2.93c-0.06-0.06-0.08-0.11-0.06-0.2
		c0.22-1.02,0.43-2.04,0.65-3.06c0.05-0.26,0.11-0.51,0.16-0.77C188.92,17.43,188.93,17.41,188.94,17.37"/>
	<path class="st1" d="M190.49,7.81c-0.01-1.47-1.18-2.66-2.66-2.66c-1.48,0-2.65,1.2-2.65,2.66c0,1.47,1.18,2.64,2.65,2.64
		C189.31,10.46,190.48,9.27,190.49,7.81"/>
	<g>
		<path class="st1" d="M298.8,26.41c-0.84,0.3-1.72,0.48-2.61,0.55c-0.33,0.03-0.58-0.18-0.6-0.48c-0.02-0.32,0.2-0.55,0.54-0.57
			c1.15-0.08,2.23-0.39,3.27-0.88c0.04-0.01,0.07-0.04,0.1-0.05c-0.56-1.45-2.3-2.61-4.22-2.11c-2,0.52-3.1,2.5-2.61,4.39
			c0.52,1.98,2.47,3.13,4.42,2.61c1.95-0.51,2.89-2.4,2.66-3.83C299.43,26.16,299.12,26.3,298.8,26.41z"/>
		<path class="st1" d="M301.9,18.27c-0.08,0-0.17-0.03-0.23-0.07c-0.6-0.39-1.21-0.8-1.83-1.21c-0.01,0.07-0.02,0.12-0.02,0.17
			c0.01,0.55,0.02,1.09,0.04,1.64c0,0.08,0.04,0.18,0.1,0.23c1.09,0.89,2.18,1.78,3.28,2.67c0.01,0.01,0.02,0.01,0.05,0.02
			c0.73-1.05,1.21-2.21,1.41-3.51c-0.08,0-0.15,0-0.21,0C303.62,18.23,302.76,18.26,301.9,18.27z"/>
		<path class="st1" d="M302.41,5.1c-9.69,0-17.24,6.96-17.24,15.92c0,8.96,7.55,15.92,17.24,15.92c9.69,0,17.24-6.96,17.24-15.92
			C319.66,12.06,312.1,5.1,302.41,5.1z M307.85,16.97c0.48-0.02,0.96-0.02,1.44-0.04c0,0,0,0,0,0c0.51-0.01,1.03-0.03,1.54-0.03
			c0.34,0,0.57,0.29,0.52,0.62c-0.12,0.74-0.24,1.47-0.37,2.21c-0.05,0.32-0.24,0.48-0.56,0.49c-0.65,0.02-1.3,0.03-1.95,0.05
			c-0.31,0.01-0.51-0.14-0.59-0.44c-0.2-0.7-0.39-1.4-0.58-2.1C307.17,17.26,307.37,16.99,307.85,16.97z M297.22,10.3
			c0.27-0.35,0.64-0.54,1.05-0.65c0.17,0,0.34-0.01,0.51-0.01c0.03,0.01,0.07,0.03,0.11,0.04c1.25,0.27,1.78,1.75,0.98,2.74
			c-0.6,0.73-1.63,0.84-2.36,0.26C296.76,12.07,296.64,11.05,297.22,10.3z M313.9,27.08c-0.45,1.76-1.57,2.9-3.31,3.4
			c-1.8,0.52-3.78-0.16-4.91-1.64c-1.51-1.98-1.26-4.67,0.59-6.34c0.05-0.04,0.1-0.09,0.13-0.12c-0.36-0.78-0.72-1.54-1.06-2.28
			c-0.25,0.5-0.5,1.03-0.76,1.54c-0.11,0.21-0.23,0.42-0.38,0.6c-0.23,0.29-0.34,0.6-0.4,0.96c-0.27,1.76-0.55,3.51-0.83,5.26
			c-0.05,0.35-0.28,0.52-0.54,0.41c-0.13-0.06-0.21-0.15-0.21-0.3c0.02-0.96,0.03-1.92,0.04-2.88c0-0.42-0.02-0.84-0.03-1.26
			c-0.15,0.12-0.32,0.26-0.51,0.39c-0.27,0.2-0.55,0.39-0.83,0.57c-0.11,0.07-0.14,0.15-0.12,0.27c0.16,1.08-0.03,2.09-0.57,3.04
			c-0.63,1.08-1.54,1.79-2.74,2.14c-0.27,0.08-0.55,0.12-0.82,0.18c-0.24,0.01-0.47,0.01-0.71,0.02c-0.06-0.01-0.13-0.03-0.19-0.03
			c-0.8-0.07-1.53-0.32-2.18-0.78c-1.62-1.16-2.31-2.76-1.97-4.72c0.43-2.46,2.71-4.08,5.14-3.77c1.48,0.19,2.62,0.93,3.41,2.18
			c0.1,0.16,0.19,0.34,0.3,0.52c0.6-0.4,1.16-0.82,1.66-1.33c-0.03-0.03-0.04-0.04-0.05-0.04c-1.35-0.78-2.69-1.57-4.04-2.34
			c-0.48-0.27-0.75-0.66-0.77-1.2c-0.05-1.43-0.08-2.85-0.11-4.28c-0.01-0.58,0.32-1.08,0.8-1.27c0.54-0.21,1.13-0.07,1.53,0.36
			c0.78,0.83,1.56,1.65,2.35,2.48c0.06,0.06,0.14,0.13,0.22,0.14c1.02,0.17,2.04,0.33,3.07,0.49c0.44,0.07,0.58,0.22,0.67,0.67
			c0.01,0.03,0.02,0.06,0.03,0.09c0.3,0.78,0.59,1.57,0.91,2.35c0.17,0.42,0.39,0.83,0.58,1.23c0.04,0,0.05,0,0.07-0.01
			c0.02-0.01,0.04-0.01,0.06-0.02c1.35-0.6,2.69-0.6,4.01,0.05c1.4,0.69,2.24,1.83,2.54,3.36c0.04,0.2,0.06,0.41,0.09,0.62
			c0,0.07,0,0.13,0.01,0.2C314.01,26.35,313.99,26.72,313.9,27.08z"/>
		<path class="st1" d="M307.81,22.73c0.29,0.46,0.55,0.93,0.86,1.37c0.37,0.53,0.77,1.04,1.16,1.54c0.21,0.28,0.22,0.59-0.02,0.79
			c-0.24,0.2-0.56,0.16-0.78-0.1c-0.68-0.8-1.28-1.65-1.81-2.55c-0.09-0.15-0.17-0.29-0.26-0.44c-1.07,0.82-1.66,2.76-0.74,4.42
			c0.95,1.72,3.15,2.34,4.91,1.39c1.75-0.95,2.39-3.15,1.41-4.92C311.56,22.47,309.44,21.94,307.81,22.73z"/>
	</g>
	<polygon class="st0" points="18.14,51.28 12.2,51.28 12.2,56.55 9.52,56.55 9.52,43.98 12.2,43.98 12.2,48.92 18.14,48.92 
		18.14,43.98 20.83,43.98 20.83,56.55 18.14,56.55 	"/>
	<path class="st0" d="M27.37,47.22c2.71,0,4.56,2.04,4.56,5.01v0.53h-6.77c0.15,1.15,1.07,2.11,2.62,2.11c0.85,0,1.85-0.34,2.43-0.9
		l1.05,1.55c-0.91,0.83-2.34,1.26-3.75,1.26c-2.77,0-4.86-1.86-4.86-4.79C22.66,49.35,24.6,47.22,27.37,47.22 M25.13,51.14h4.48
		c-0.06-0.87-0.66-2.02-2.24-2.02C25.88,49.13,25.24,50.24,25.13,51.14"/>
	<rect x="33.67" y="43.98" class="st0" width="2.39" height="12.57"/>
	<path class="st0" d="M38.44,60.02V47.45h2.39v1.15c0.7-0.89,1.7-1.38,2.81-1.38c2.34,0,4.03,1.73,4.03,4.77
		c0,3.03-1.7,4.79-4.03,4.79c-1.07,0-2.07-0.45-2.81-1.39v4.64H38.44z M42.89,49.35c-0.77,0-1.66,0.45-2.06,1.04v3.22
		c0.4,0.57,1.28,1.04,2.06,1.04c1.38,0,2.3-1.07,2.3-2.66C45.18,50.43,44.26,49.35,42.89,49.35"/>
	<path class="st0" d="M62.35,54.38h-5.61l-0.79,2.17h-2.94l4.86-12.57h3.36l4.84,12.57h-2.92L62.35,54.38z M57.46,52.07h4.16
		l-2.07-5.77L57.46,52.07z"/>
	<path class="st0" d="M73.06,55.4c-0.62,0.7-1.72,1.38-3.2,1.38c-2,0-2.94-1.09-2.94-2.87v-6.46h2.39v5.52
		c0,1.26,0.66,1.68,1.68,1.68c0.92,0,1.66-0.51,2.07-1.04v-6.16h2.39v9.1h-2.39V55.4z"/>
	<path class="st0" d="M78.08,53.69c0.66,0.62,2.02,1.24,3.15,1.24c1.04,0,1.53-0.36,1.53-0.92c0-0.64-0.79-0.87-1.83-1.07
		c-1.56-0.3-3.58-0.68-3.58-2.85c0-1.53,1.34-2.86,3.73-2.86c1.54,0,2.77,0.53,3.67,1.24l-0.96,1.64c-0.55-0.58-1.58-1.06-2.7-1.06
		c-0.87,0-1.43,0.32-1.43,0.85c0,0.56,0.72,0.77,1.73,0.98c1.56,0.3,3.66,0.72,3.66,2.98c0,1.66-1.41,2.92-3.94,2.92
		c-1.58,0-3.11-0.53-4.07-1.41L78.08,53.69z"/>
	<path class="st0" d="M87.3,54.29v-4.75h-1.51v-2.09h1.51v-2.49h2.41v2.49h1.85v2.09h-1.85v4.11c0,0.57,0.3,1,0.83,1
		c0.36,0,0.7-0.13,0.83-0.26l0.51,1.81c-0.36,0.32-1,0.58-2,0.58C88.2,56.78,87.3,55.91,87.3,54.29"/>
	<path class="st0" d="M92.95,44.85c0-0.79,0.66-1.43,1.43-1.43c0.79,0,1.43,0.64,1.43,1.43c0,0.79-0.64,1.43-1.43,1.43
		C93.61,46.28,92.95,45.64,92.95,44.85 M93.2,47.45h2.39v9.1H93.2V47.45z"/>
	<path class="st0" d="M104.11,51.05c0-1.26-0.66-1.69-1.68-1.69c-0.94,0-1.68,0.53-2.07,1.07v6.12h-2.39v-9.1h2.39v1.19
		c0.58-0.7,1.7-1.41,3.19-1.41c2,0,2.96,1.13,2.96,2.9v6.43h-2.39V51.05z"/>
	<path class="st0" d="M113.7,47.45h2.39v1.24c0.64-0.81,1.77-1.45,2.9-1.45v2.34c-0.17-0.04-0.4-0.08-0.66-0.08
		c-0.79,0-1.85,0.45-2.24,1.04v6.01h-2.39V47.45z"/>
	<path class="st0" d="M124.62,47.22c2.71,0,4.56,2.04,4.56,5.01v0.53h-6.77c0.15,1.15,1.07,2.11,2.62,2.11
		c0.85,0,1.85-0.34,2.43-0.9l1.06,1.55c-0.91,0.83-2.34,1.26-3.75,1.26c-2.77,0-4.86-1.86-4.86-4.79
		C119.9,49.35,121.85,47.22,124.62,47.22 M122.37,51.14h4.48c-0.06-0.87-0.66-2.02-2.24-2.02
		C123.13,49.13,122.49,50.24,122.37,51.14"/>
	<path class="st0" d="M136.38,55.61c-0.62,0.74-1.7,1.17-2.88,1.17c-1.45,0-3.17-0.98-3.17-3.02c0-2.13,1.72-2.9,3.17-2.9
		c1.21,0,2.28,0.38,2.88,1.11v-1.26c0-0.92-0.79-1.53-2-1.53c-0.98,0-1.88,0.36-2.66,1.07l-0.91-1.6c1.11-0.98,2.54-1.43,3.98-1.43
		c2.07,0,3.98,0.83,3.98,3.45v5.88h-2.39V55.61z M136.38,53.24c-0.4-0.53-1.15-0.79-1.92-0.79c-0.94,0-1.72,0.49-1.72,1.38
		c0,0.85,0.77,1.34,1.72,1.34c0.77,0,1.53-0.26,1.92-0.79V53.24z"/>
	<path class="st0" d="M145.39,47.22c1.86,0,3,0.81,3.6,1.64l-1.56,1.47c-0.43-0.64-1.09-0.98-1.92-0.98c-1.45,0-2.47,1.06-2.47,2.64
		s1.02,2.66,2.47,2.66c0.83,0,1.49-0.38,1.92-0.98l1.56,1.45c-0.6,0.85-1.73,1.66-3.6,1.66c-2.81,0-4.82-1.98-4.82-4.79
		C140.56,49.2,142.58,47.22,145.39,47.22"/>
	<path class="st0" d="M156.72,51.01c0-1.26-0.66-1.66-1.7-1.66c-0.92,0-1.66,0.53-2.07,1.07v6.12h-2.39V43.98h2.39v4.65
		c0.58-0.7,1.71-1.41,3.21-1.41c2,0,2.96,1.09,2.96,2.86v6.46h-2.39V51.01z"/>
	<polygon class="st0" points="165.92,54.76 170.02,49.54 165.92,49.54 165.92,47.45 173.27,47.45 173.27,49.18 169.1,54.46 
		173.34,54.46 173.34,56.55 165.92,56.55 	"/>
	<path class="st0" d="M179.47,47.22c2.71,0,4.56,2.04,4.56,5.01v0.53h-6.77c0.15,1.15,1.07,2.11,2.62,2.11
		c0.85,0,1.85-0.34,2.43-0.9l1.05,1.55c-0.91,0.83-2.34,1.26-3.75,1.26c-2.77,0-4.86-1.86-4.86-4.79
		C174.76,49.35,176.7,47.22,179.47,47.22 M177.22,51.14h4.48c-0.06-0.87-0.66-2.02-2.24-2.02
		C177.98,49.13,177.34,50.24,177.22,51.14"/>
	<path class="st0" d="M185.76,47.45h2.39v1.24c0.64-0.81,1.77-1.45,2.9-1.45v2.34c-0.17-0.04-0.4-0.08-0.66-0.08
		c-0.79,0-1.85,0.45-2.24,1.04v6.01h-2.39V47.45z"/>
	<path class="st0" d="M191.96,51.99c0-2.58,1.81-4.77,4.81-4.77c3.02,0,4.82,2.19,4.82,4.77c0,2.6-1.81,4.79-4.82,4.79
		C193.77,56.78,191.96,54.59,191.96,51.99 M199.11,51.99c0-1.41-0.85-2.64-2.34-2.64c-1.49,0-2.32,1.22-2.32,2.64
		c0,1.43,0.83,2.66,2.32,2.66C198.26,54.65,199.11,53.42,199.11,51.99"/>
	<path class="st0" d="M208.66,54.29v-4.75h-1.51v-2.09h1.51v-2.49h2.41v2.49h1.85v2.09h-1.85v4.11c0,0.57,0.3,1,0.83,1
		c0.36,0,0.7-0.13,0.83-0.26l0.51,1.81c-0.36,0.32-1,0.58-2,0.58C209.57,56.78,208.66,55.91,208.66,54.29"/>
	<path class="st0" d="M214.56,47.45h2.39v1.24c0.64-0.81,1.77-1.45,2.9-1.45v2.34c-0.17-0.04-0.4-0.08-0.66-0.08
		c-0.79,0-1.85,0.45-2.24,1.04v6.01h-2.39V47.45z"/>
	<path class="st0" d="M226.82,55.61c-0.62,0.74-1.7,1.17-2.88,1.17c-1.45,0-3.16-0.98-3.16-3.02c0-2.13,1.71-2.9,3.16-2.9
		c1.21,0,2.28,0.38,2.88,1.11v-1.26c0-0.92-0.79-1.53-2-1.53c-0.98,0-1.88,0.36-2.66,1.07l-0.91-1.6c1.11-0.98,2.54-1.43,3.98-1.43
		c2.07,0,3.98,0.83,3.98,3.45v5.88h-2.39V55.61z M226.82,53.24c-0.4-0.53-1.15-0.79-1.92-0.79c-0.94,0-1.71,0.49-1.71,1.38
		c0,0.85,0.77,1.34,1.71,1.34c0.77,0,1.53-0.26,1.92-0.79V53.24z"/>
	<path class="st0" d="M232.11,49.54h-1.51v-2.09h1.51v-0.49c0-1.98,1.28-3.17,3.07-3.17c0.68,0,1.3,0.15,1.73,0.38l-0.49,1.7
		c-0.21-0.13-0.49-0.19-0.77-0.19c-0.68,0-1.13,0.45-1.13,1.32v0.45h1.85v2.09h-1.85v7.01h-2.41V49.54z M238.28,49.54h-1.51v-2.09
		h1.51v-0.49c0-1.98,1.28-3.17,3.07-3.17c0.68,0,1.3,0.15,1.73,0.38l-0.49,1.73c-0.19-0.13-0.45-0.23-0.77-0.23
		c-0.68,0-1.13,0.45-1.13,1.28v0.49h1.85v2.09h-1.85v7.01h-2.41V49.54z M243.67,44.85c0-0.79,0.66-1.43,1.43-1.43
		c0.79,0,1.43,0.64,1.43,1.43c0,0.79-0.64,1.43-1.43,1.43C244.33,46.28,243.67,45.64,243.67,44.85 M243.91,47.45h2.39v9.1h-2.39
		V47.45z"/>
	<path class="st0" d="M252.92,47.22c1.87,0,3,0.81,3.6,1.64l-1.56,1.47c-0.43-0.64-1.09-0.98-1.92-0.98c-1.45,0-2.47,1.06-2.47,2.64
		s1.02,2.66,2.47,2.66c0.83,0,1.49-0.38,1.92-0.98l1.56,1.45c-0.6,0.85-1.73,1.66-3.6,1.66c-2.81,0-4.82-1.98-4.82-4.79
		C248.1,49.2,250.11,47.22,252.92,47.22"/>
	<path class="st0" d="M269.17,55.38c-0.72,0.9-1.72,1.39-2.81,1.39c-2.3,0-4.03-1.73-4.03-4.77c0-2.97,1.72-4.79,4.03-4.79
		c1.08,0,2.09,0.47,2.81,1.39v-4.64h2.41v12.57h-2.41V55.38z M269.17,50.39c-0.4-0.6-1.26-1.04-2.07-1.04c-1.36,0-2.3,1.07-2.3,2.66
		c0,1.57,0.94,2.64,2.3,2.64c0.81,0,1.68-0.43,2.07-1.04V50.39z"/>
	<path class="st0" d="M278.09,47.22c2.71,0,4.56,2.04,4.56,5.01v0.53h-6.77c0.15,1.15,1.07,2.11,2.62,2.11
		c0.85,0,1.85-0.34,2.43-0.9l1.06,1.55c-0.91,0.83-2.34,1.26-3.75,1.26c-2.77,0-4.86-1.86-4.86-4.79
		C273.37,49.35,275.32,47.22,278.09,47.22 M275.84,51.14h4.48c-0.06-0.87-0.66-2.02-2.24-2.02
		C276.6,49.13,275.96,50.24,275.84,51.14"/>
	<path class="st0" d="M289.85,55.61c-0.62,0.74-1.7,1.17-2.88,1.17c-1.45,0-3.17-0.98-3.17-3.02c0-2.13,1.72-2.9,3.17-2.9
		c1.21,0,2.28,0.38,2.88,1.11v-1.26c0-0.92-0.79-1.53-2-1.53c-0.98,0-1.88,0.36-2.66,1.07l-0.91-1.6c1.11-0.98,2.54-1.43,3.98-1.43
		c2.07,0,3.98,0.83,3.98,3.45v5.88h-2.39V55.61z M289.85,53.24c-0.4-0.53-1.15-0.79-1.92-0.79c-0.94,0-1.72,0.49-1.72,1.38
		c0,0.85,0.77,1.34,1.72,1.34c0.77,0,1.53-0.26,1.92-0.79V53.24z"/>
	<path class="st0" d="M295.09,54.29v-4.75h-1.51v-2.09h1.51v-2.49h2.41v2.49h1.85v2.09h-1.85v4.11c0,0.57,0.3,1,0.83,1
		c0.36,0,0.7-0.13,0.83-0.26l0.51,1.81c-0.36,0.32-1,0.58-2,0.58C295.99,56.78,295.09,55.91,295.09,54.29"/>
	<path class="st0" d="M307.15,51.01c0-1.26-0.66-1.66-1.7-1.66c-0.92,0-1.66,0.53-2.08,1.07v6.12h-2.39V43.98h2.39v4.65
		c0.59-0.7,1.72-1.41,3.21-1.41c2,0,2.96,1.09,2.96,2.86v6.46h-2.39V51.01z"/>
	<path class="st0" d="M312.17,53.69c0.66,0.62,2.02,1.24,3.15,1.24c1.04,0,1.53-0.36,1.53-0.92c0-0.64-0.79-0.87-1.83-1.07
		c-1.56-0.3-3.58-0.68-3.58-2.85c0-1.53,1.34-2.86,3.73-2.86c1.54,0,2.77,0.53,3.67,1.24l-0.96,1.64c-0.55-0.58-1.58-1.06-2.7-1.06
		c-0.87,0-1.43,0.32-1.43,0.85c0,0.56,0.72,0.77,1.73,0.98c1.56,0.3,3.66,0.72,3.66,2.98c0,1.66-1.41,2.92-3.94,2.92
		c-1.58,0-3.11-0.53-4.07-1.41L312.17,53.69z"/>
</g>
</svg>
